<?xml version="1.0" encoding="utf-8"?>
<!-- Generator: Adobe Illustrator 20.1.0, SVG Export Plug-In . SVG Version: 6.00 Build 0)  -->
<svg version="1.1" id="Layer_1" xmlns="http://www.w3.org/2000/svg" xmlns:xlink="http://www.w3.org/1999/xlink" x="0px" y="0px"
	 viewBox="0 0 165 100" style="enable-background:new 0 0 165 100;" xml:space="preserve">
<style type="text/css">
	.st0{fill:#FFC107;}
	.st1{fill:#FFFFFF;}
	.st2{fill-rule:evenodd;clip-rule:evenodd;fill:#FF9900;}
	.st3{fill-rule:evenodd;clip-rule:evenodd;fill:#FFC107;}
	.st4{fill-rule:evenodd;clip-rule:evenodd;fill:#FFFFFF;}
</style>
<g>
	<g>
		<g>
			<polygon class="st0" points="1.1,59.4 4.2,59.4 4.2,53.1 9.5,53.1 9.5,50.1 4.2,50.1 4.2,46.7 10.6,46.7 10.6,43.9 1.1,43.9 			
				"/>
			<polygon class="st0" points="15.4,43.9 12.2,43.9 12.2,59.4 21.5,59.4 21.5,56.5 15.4,56.5 			"/>
			<polygon class="st0" points="23.1,59.4 33,59.4 33,56.5 26.2,56.5 26.2,53.1 31.9,53.1 31.9,50.1 26.2,50.1 26.2,46.7 33,46.7 
				33,43.9 23.1,43.9 			"/>
			<polygon class="st0" points="50.6,59.3 44.3,51.4 50,43.9 45.9,43.9 42.3,48.7 42.2,48.5 39.1,43.9 35.1,43.9 34.7,43.9 
				34.7,43.9 36.6,46.4 40.3,51.5 34.6,59.4 38.5,59.4 42.3,54.1 44.3,56.8 46.1,59.4 46.2,59.4 46.5,59.3 			"/>
		</g>
		<g>
			<path class="st1" d="M59,43.9c3.2,0,5.2,1.4,5.2,3.8c0,1.7-1.1,3.1-2.7,3.5c2.1,0.4,3.4,1.8,3.4,3.9c0,2.7-2.1,4.2-5.7,4.2h-6.9
				V43.9H59z M54.8,50.3h3.9c1.6,0,2.7-0.8,2.7-2.1s-1-2-2.7-2h-3.9V50.3z M54.8,57h3.9c2,0,3.3-0.8,3.3-2.2c0-1.3-1.2-2.2-3.3-2.2
				h-3.9V57z"/>
			<path class="st1" d="M74.2,57.9c-0.9,1.1-2.2,1.5-3.9,1.5c-2.5,0-4.1-1.5-4.1-3.6c0-2.1,1.6-3.6,4.4-3.6h3.6v-0.4
				c0-1.4-1-2.4-2.8-2.4c-1.2,0-2.3,0.4-3.5,1.2l-1.1-1.7c1.6-1,2.8-1.4,5.1-1.4c3.1,0,4.7,1.5,4.7,4.1v7.7h-2.5L74.2,57.9
				L74.2,57.9z M74.2,55.2v-1.1h-3.2c-1.6,0-2.4,0.5-2.4,1.5c0,1.1,0.9,1.7,2.3,1.7C72.7,57.4,74,56.5,74.2,55.2z"/>
			<path class="st1" d="M89.3,49.5l-1.4,1.6c-0.9-0.9-1.9-1.3-3.4-1.3c-2,0-3.5,1.5-3.5,3.7s1.4,3.7,3.5,3.7c1.4,0,2.7-0.5,3.5-1.4
				l1.4,1.4c-1.1,1.3-2.8,2.2-5,2.2c-3.5,0-6-2.4-6-6s2.4-6,6-6C86.5,47.5,88.2,48.2,89.3,49.5z"/>
			<path class="st1" d="M133.9,45.1c0.6,0,1.3,0.2,2,0.5l0.1-2.2c-0.7-0.4-1.4-0.6-2.2-0.6c-1.9,0-4,1.2-4,4v1.2h-1.5v0h-3.6v-1.4
				c0-1.2,0.7-1.6,1.6-1.5c0.6,0,1.2,0.2,1.6,0.6l1-1.9c-0.8-0.6-1.7-0.9-2.7-0.9c-2,0-4,1.2-4,4v1.2h-1.5V50h1.5v9.4h2.5V50h4v0
				h1.2v9.3h2.5V50h3.1v-1.9h-3.1v-1.4C132.2,45.5,133,45.1,133.9,45.1z"/>
			<path class="st1" d="M137,45c0-0.9,0.7-1.5,1.4-1.5c0.9,0,1.4,0.7,1.4,1.5c0,0.9-0.7,1.5-1.4,1.5C137.6,46.5,137,45.9,137,45z"/>
			<rect x="137.2" y="47.6" class="st1" width="2.5" height="11.7"/>
			<path class="st1" d="M152.2,49.5l-1.4,1.6c-0.9-0.9-1.9-1.3-3.4-1.3c-2,0-3.5,1.5-3.5,3.7s1.4,3.7,3.5,3.7c1.4,0,2.7-0.5,3.5-1.4
				l1.4,1.4c-1.1,1.3-2.8,2.2-5,2.2c-3.5,0-6-2.4-6-6s2.4-6,6-6C149.5,47.5,151.1,48.2,152.2,49.5z"/>
			<path class="st1" d="M164.5,54.5h-8.9c0.4,1.8,1.8,3,3.6,3c1.2,0,2.5-0.5,3.4-1.3l1.3,1.4c-1.2,1.2-2.8,2-4.9,2c-3.6,0-6-2.4-6-6
				s2.5-6,6-6C163,47.5,164.8,50.2,164.5,54.5z M162.3,52.6c-0.1-1.9-1.3-3.1-3.3-3.1c-1.8,0-3.2,1.2-3.5,3.1H162.3z"/>
			<polygon class="st1" points="97.7,51 102,46.4 99.1,46.4 93.9,51.7 93.9,48 93.9,42.9 91.4,42.9 91.4,59.3 93.9,59.3 93.9,56.1 
				93.9,55 95.9,52.8 100.2,59.3 103.1,59.3 			"/>
		</g>
	</g>
</g>
<path class="st2" d="M117.3,47.3c0.8,1.2,1.3,2.7,1.3,4.3c0,4.3-3.5,7.8-7.8,7.8c-4.3,0-7.8-3.5-7.8-7.8c0-1.7,0.5-3.2,1.4-4.5
	l1.4,1c-0.7,1-1.1,2.2-1.1,3.5c0,3.3,2.7,6,6,6c3.3,0,6-2.7,6-6c0-1.2-0.4-2.4-1-3.3c-0.1-0.1-0.2-0.3-0.2-0.5
	c0-0.5,0.4-0.9,0.9-0.9C116.9,46.8,117.2,47,117.3,47.3z"/>
<path class="st3" d="M110.7,45.7c0.4,0,0.7,0.3,0.7,0.7c0,0.4-0.3,0.7-0.7,0.7c-0.4,0-0.7-0.3-0.7-0.7C110,46,110.3,45.7,110.7,45.7
	z"/>
<path class="st3" d="M110.7,55.2c0.4,0,0.7,0.3,0.7,0.7c0,0.4-0.3,0.7-0.7,0.7c-0.4,0-0.7-0.3-0.7-0.7
	C110,55.5,110.3,55.2,110.7,55.2z"/>
<path class="st3" d="M115.2,50.9c0.4,0,0.7,0.3,0.7,0.7c0,0.4-0.3,0.7-0.7,0.7c-0.4,0-0.7-0.3-0.7-0.7
	C114.5,51.2,114.8,50.9,115.2,50.9z"/>
<path class="st3" d="M106.4,50.9c0.4,0,0.7,0.3,0.7,0.7c0,0.4-0.3,0.7-0.7,0.7c-0.4,0-0.7-0.3-0.7-0.7
	C105.7,51.2,106.1,50.9,106.4,50.9z"/>
<path class="st4" d="M106.1,48.2l4.2,2.1c3.4-4.6,9-8.1,12.8-9.7c-4.2,3.1-8.9,7.1-12.3,12.7L106.1,48.2z"/>
<path class="st0" d="M116.6,46.1c-0.6,0.6-1.2,1.2-1.8,1.9c0.9,1,1.4,2.2,1.4,3.7c0,3.1-2.4,5.5-5.5,5.5c-3.1,0-5.6-2.4-5.6-5.5
	c0-1.2,0.4-2.4,1.1-3.3l-0.2-0.2l-1.9-1.3c-1,1.3-1.6,2.9-1.6,4.7c0,4.4,3.6,7.9,8.2,7.9s8.2-3.5,8.2-7.9
	C118.9,49.4,118,47.5,116.6,46.1z"/>
</svg>
