<?xml version="1.0" encoding="utf-8"?>
<!-- Generator: Adobe Illustrator 20.1.0, SVG Export Plug-In . SVG Version: 6.00 Build 0)  -->
<svg version="1.1" id="Layer_1" xmlns="http://www.w3.org/2000/svg" xmlns:xlink="http://www.w3.org/1999/xlink" x="0px" y="0px"
	 viewBox="0 0 80 80" style="enable-background:new 0 0 80 80;" xml:space="preserve">
<style type="text/css">
	.st0{fill:#FCB91E;}
	.st1{fill:#FFFFFF;}
</style>
<circle class="st0" cx="40" cy="40" r="40"/>
<g>
	<path class="st1" d="M52.4,23.6c-4.7,0-9,1.9-12.2,4.9c-3.2-3-7.5-4.9-12.2-4.9c-9.8,0-17.8,8-17.8,17.8c0,9.8,8,17.8,17.8,17.8
		c4.7,0,9-1.9,12.2-4.9c3.2,3,7.5,4.9,12.2,4.9c9.8,0,17.8-8,17.8-17.8C70.2,31.6,62.2,23.6,52.4,23.6L52.4,23.6z M27.9,57.6
		c-8.9,0-16.2-7.3-16.2-16.2c0-8.9,7.3-16.2,16.2-16.2c4.3,0,8.2,1.7,11.1,4.4c-2.8,3.1-4.5,7.3-4.5,11.8c0,4.5,1.7,8.6,4.5,11.8
		C36.1,55.9,32.2,57.6,27.9,57.6L27.9,57.6z M36.2,41.4c0-4.1,1.5-7.8,4-10.6c2.5,2.8,4,6.6,4,10.6c0,4.1-1.5,7.8-4,10.6
		C37.7,49.2,36.2,45.5,36.2,41.4L36.2,41.4z M52.4,57.6c-4.3,0-8.2-1.7-11.1-4.4c2.8-3.1,4.5-7.3,4.5-11.8s-1.7-8.6-4.5-11.8
		c2.9-2.7,6.8-4.4,11.1-4.4c8.9,0,16.2,7.3,16.2,16.2C68.6,50.3,61.3,57.6,52.4,57.6L52.4,57.6z M41.2,33.9h-2.4v-0.8h2.4V33.9z
		 M39.1,48.9h2.4v0.8h-2.4V48.9z M42.8,36.7h-5.2v-0.8h5.2V36.7z M43.3,39.3h-6.6v-0.8h6.6V39.3z M43.6,41.1v0.8h-6.9v-0.8H43.6z
		 M37.1,43.7h6.2v0.8h-6.2V43.7z M37.6,46.3h4.7v0.8h-4.7V46.3z M37.6,46.3"/>
</g>
</svg>
