<?xml version="1.0" encoding="utf-8"?>
<!-- Generator: Adobe Illustrator 20.1.0, SVG Export Plug-In . SVG Version: 6.00 Build 0)  -->
<svg version="1.1" id="Layer_1" xmlns="http://www.w3.org/2000/svg" xmlns:xlink="http://www.w3.org/1999/xlink" x="0px" y="0px"
	 viewBox="0 0 80 80" style="enable-background:new 0 0 80 80;" xml:space="preserve">
<style type="text/css">
	.st0{fill:#FCB91E;}
	.st1{fill:#FFFFFF;}
</style>
<circle class="st0" cx="40" cy="40" r="40"/>
<g>
	<path class="st1" d="M43.9,44.8c0.8-1.3,1.4-2.8,1.8-4.3h1.6c1.7,0,3-1.3,3-3v-2c0-1.7-1.3-3-3-3h-1.6c-0.4-1.5-1-2.9-1.8-4.3
		l1.1-1.1c1.2-1.2,1.2-3.1,0-4.2l-1.4-1.4c-0.6-0.6-1.3-0.9-2.1-0.9c-0.8,0-1.6,0.3-2.1,0.9l-1.1,1.1c-1.3-0.8-2.8-1.4-4.3-1.8v-1.6
		c0-1.7-1.3-3-3-3h-2c-1.7,0-3,1.3-3,3v1.6c-1.5,0.4-2.9,1-4.3,1.8l-1.1-1.1c-0.6-0.6-1.3-0.9-2.1-0.9s-1.6,0.3-2.1,0.9l-1.4,1.4
		c-1.2,1.2-1.2,3.1,0,4.2l1.1,1.1c-0.8,1.3-1.4,2.8-1.8,4.3h-1.6c-1.7,0-3,1.3-3,3v2c0,1.7,1.3,3,3,3h1.6c0.4,1.5,1,2.9,1.8,4.3
		l-1.1,1.1c-1.2,1.2-1.2,3.1,0,4.2l1.4,1.4c1.2,1.2,3.1,1.2,4.2,0l1.1-1.1c1.3,0.8,2.8,1.4,4.3,1.8v1.6c0,1.7,1.3,3,3,3h2
		c1.7,0,3-1.3,3-3v-1.6c1.5-0.4,2.9-1,4.3-1.8l1.1,1.1c1.2,1.2,3.1,1.2,4.2,0l1.4-1.4c1.2-1.2,1.2-3.1,0-4.2L43.9,44.8z M43.7,48.8
		l-1.4,1.4c-0.4,0.4-1.1,0.4-1.5,0L39,48.6c-0.3-0.3-0.8-0.4-1.2-0.1c-1.5,1-3.2,1.7-5,2.1C32.4,50.6,32,51,32,51.5v2.3
		c0,0.6-0.5,1.1-1.1,1.1h-2c-0.6,0-1.1-0.5-1.1-1.1v-2.3c0-0.5-0.3-0.8-0.8-0.9c-1.8-0.4-3.5-1.1-5-2.1c-0.2-0.1-0.3-0.2-0.5-0.2
		c-0.2,0-0.5,0.1-0.7,0.3l-1.7,1.7c-0.4,0.4-1.1,0.4-1.5,0l-1.4-1.4c-0.4-0.4-0.4-1.1,0-1.5l1.7-1.7c0.3-0.3,0.4-0.8,0.1-1.2
		c-1-1.5-1.7-3.2-2.1-5c-0.1-0.4-0.5-0.8-0.9-0.8h-2.3c-0.6,0-1.1-0.5-1.1-1.1v-2c0-0.6,0.5-1.1,1.1-1.1H15c0.5,0,0.8-0.3,0.9-0.8
		c0.4-1.8,1.1-3.5,2.1-5c0.3-0.4,0.2-0.9-0.1-1.2l-1.7-1.7c-0.4-0.4-0.4-1.1,0-1.5l1.4-1.4c0.2-0.2,0.5-0.3,0.8-0.3s0.6,0.1,0.8,0.3
		l1.7,1.7c0.3,0.3,0.8,0.4,1.2,0.1c1.5-1,3.2-1.7,5-2.1c0.4-0.1,0.8-0.5,0.8-0.9v-2.3c0-0.6,0.5-1.1,1.1-1.1h2
		c0.6,0,1.1,0.5,1.1,1.1v2.3c0,0.5,0.3,0.8,0.8,0.9c1.8,0.4,3.5,1.1,5,2.1c0.4,0.3,0.9,0.2,1.2-0.1l1.7-1.7c0.2-0.2,0.5-0.3,0.8-0.3
		c0.3,0,0.6,0.1,0.8,0.3l1.4,1.4c0.4,0.4,0.4,1.1,0,1.5L42,27.4c-0.3,0.3-0.4,0.8-0.1,1.2c1,1.5,1.7,3.2,2.1,5
		c0.1,0.4,0.5,0.8,0.9,0.8h2.3c0.6,0,1.1,0.5,1.1,1.1v2c0,0.6-0.5,1.1-1.1,1.1h-2.3c-0.5,0-0.8,0.3-0.9,0.8c-0.4,1.8-1.1,3.5-2.1,5
		c-0.3,0.4-0.2,0.9,0.1,1.2l1.7,1.7C44.1,47.7,44.1,48.4,43.7,48.8z"/>
	<path class="st1" d="M66.9,51.7l-0.5-0.3c0.1-0.6,0.2-1.1,0.2-1.7s-0.1-1.1-0.2-1.7l0.5-0.3c1.4-0.8,1.9-2.7,1.1-4.1
		c-0.8-1.4-2.7-1.9-4.1-1.1l-0.5,0.3c-0.9-0.7-1.9-1.3-3-1.7v-0.6c0-1.7-1.3-3-3-3s-3,1.3-3,3v0.6c-1.1,0.4-2.1,1-3,1.7L51,42.6
		c-0.7-0.4-1.5-0.5-2.3-0.3c-0.8,0.2-1.4,0.7-1.8,1.4c-0.8,1.4-0.3,3.3,1.1,4.1l0.5,0.3c-0.1,0.6-0.2,1.1-0.2,1.7
		c0,0.6,0.1,1.1,0.2,1.7L48,51.7c-1.4,0.8-1.9,2.7-1.1,4.1c0.8,1.4,2.7,1.9,4.1,1.1l0.5-0.3c0.9,0.7,1.9,1.3,3,1.7v0.6
		c0,1.7,1.3,3,3,3s3-1.3,3-3v-0.6c1.1-0.4,2.1-1,3-1.7l0.5,0.3c1.4,0.8,3.3,0.3,4.1-1.1C68.8,54.4,68.3,52.5,66.9,51.7z M66.3,54.9
		c-0.3,0.5-1,0.7-1.5,0.4l-1.1-0.6c-0.4-0.2-0.9-0.2-1.2,0.2c-0.9,0.9-2.1,1.6-3.3,1.9c-0.4,0.1-0.7,0.5-0.7,0.9v1.3
		c0,0.6-0.5,1.1-1.1,1.1s-1.1-0.5-1.1-1.1v-1.3c0-0.4-0.3-0.8-0.7-0.9c-1.3-0.3-2.4-1-3.3-1.9c-0.2-0.2-0.4-0.3-0.7-0.3
		c-0.2,0-0.3,0-0.5,0.1L50,55.3c-0.5,0.3-1.2,0.1-1.5-0.4c-0.3-0.5-0.1-1.2,0.4-1.5l1.1-0.6c0.4-0.2,0.6-0.7,0.4-1.1
		c-0.2-0.6-0.3-1.3-0.3-1.9s0.1-1.3,0.3-1.9c0.1-0.4-0.1-0.9-0.4-1.1L49,46.1c-0.5-0.3-0.7-1-0.4-1.5c0.1-0.3,0.4-0.4,0.7-0.5
		c0.3-0.1,0.6,0,0.8,0.1l1.1,0.6c0.4,0.2,0.9,0.2,1.2-0.2c0.9-0.9,2.1-1.6,3.3-1.9c0.4-0.1,0.7-0.5,0.7-0.9v-1.3
		c0-0.6,0.5-1.1,1.1-1.1s1.1,0.5,1.1,1.1v1.3c0,0.4,0.3,0.8,0.7,0.9c1.3,0.3,2.4,1,3.3,1.9c0.3,0.3,0.8,0.4,1.2,0.2l1.1-0.6
		c0.5-0.3,1.2-0.1,1.5,0.4c0.3,0.5,0.1,1.2-0.4,1.5l-1.1,0.6c-0.4,0.2-0.6,0.7-0.4,1.1c0.2,0.6,0.3,1.3,0.3,1.9
		c0,0.6-0.1,1.3-0.3,1.9c-0.1,0.4,0.1,0.9,0.4,1.1l1.1,0.6C66.4,53.7,66.6,54.3,66.3,54.9z"/>
	<path class="st1" d="M57.4,45.7c-2.2,0-4,1.8-4,4s1.8,4,4,4s4-1.8,4-4S59.7,45.7,57.4,45.7z M57.4,51.8c-1.2,0-2.1-0.9-2.1-2.1
		c0-1.2,0.9-2.1,2.1-2.1s2.1,0.9,2.1,2.1C59.5,50.9,58.6,51.8,57.4,51.8z"/>
	<path class="st1" d="M29.9,28.4c-4.5,0-8.1,3.6-8.1,8.1s3.6,8.1,8.1,8.1s8.1-3.6,8.1-8.1S34.4,28.4,29.9,28.4z M29.9,42.7
		c-3.4,0-6.2-2.8-6.2-6.2s2.8-6.2,6.2-6.2s6.2,2.8,6.2,6.2S33.3,42.7,29.9,42.7z"/>
</g>
</svg>
