<?xml version="1.0" encoding="utf-8"?>
<!-- Generator: Adobe Illustrator 20.1.0, SVG Export Plug-In . SVG Version: 6.00 Build 0)  -->
<svg version="1.1" id="Layer_1" xmlns="http://www.w3.org/2000/svg" xmlns:xlink="http://www.w3.org/1999/xlink" x="0px" y="0px"
	 viewBox="0 0 36.2 36.2" style="enable-background:new 0 0 36.2 36.2;" xml:space="preserve">
<style type="text/css">
	.st0{fill:#FCB91E;}
	.st1{fill:#FFFFFF;}
</style>
<rect class="st0" width="36.2" height="36.2"/>
<path class="st1" d="M11,8.1v20h4.7v-5.7h3.7v5.7H24v-20H11z M14.2,24.7h-1.5v-2.3h1.5V24.7z M14.2,20.9h-1.5v-2.3h1.5V20.9z
	 M14.2,16.9h-1.5v-2.3h1.5V16.9z M14.2,12.8h-1.5v-2.3h1.5V12.8z M18.3,20.9h-1.5v-2.3h1.5V20.9z M18.3,16.9h-1.5v-2.3h1.5V16.9z
	 M18.3,12.8h-1.5v-2.3h1.5V12.8z M22.3,24.7h-1.5v-2.3h1.5V24.7z M22.3,20.9h-1.5v-2.3h1.5V20.9z M22.3,16.9h-1.5v-2.3h1.5V16.9z
	 M22.3,12.8h-1.5v-2.3h1.5V12.8z"/>
</svg>
