<?xml version="1.0" encoding="utf-8"?>
<!-- Generator: Adobe Illustrator 20.1.0, SVG Export Plug-In . SVG Version: 6.00 Build 0)  -->
<svg version="1.1" id="Layer_1" xmlns="http://www.w3.org/2000/svg" xmlns:xlink="http://www.w3.org/1999/xlink" x="0px" y="0px"
	 viewBox="0 0 80 80" style="enable-background:new 0 0 80 80;" xml:space="preserve">
<style type="text/css">
	.st0{fill:#FCB91E;}
	.st1{fill:#FFFFFF;}
</style>
<circle class="st0" cx="40" cy="40" r="40"/>
<path class="st1" d="M70.8,37.4c-1.8-7.9-5.7-14.9-11.1-20c-5.3-5-11.5-7.7-18.1-8V8.4c0-0.6-0.5-1.1-1.1-1.1
	c-0.6,0-1.1,0.5-1.1,1.1v1.1c-6.6,0.3-12.9,3-18.1,8c-5.3,5-9.3,12.1-11.1,20c-0.1,0.6,0.2,1.2,0.8,1.3c0.1,0,0.2,0,0.3,0
	c0,0,0,0,0,0c0.6,0,1.1-0.5,1.1-1.1c0-1.3,1.5-2.4,3.2-2.4c1.7,0,3.2,1.1,3.2,2.4c0,0.6,0.5,1.1,1.1,1.1c0,0,0,0,0,0c0,0,0,0,0,0
	c0,0,0,0,0,0c0,0,0,0,0,0c0.5,0,1-0.4,1.1-0.9c0-0.3,0.1-0.5,0.1-0.8c0.4-1,1.9-1.8,3.6-1.8c2,0,3.8,1.1,3.8,2.4
	c0,0.6,0.5,1.1,1.1,1.1c0,0,0,0,0,0c0,0,0,0,0,0c0,0,0,0,0,0c0,0,0,0,0.1,0c0,0,0,0,0,0c0,0,0,0,0.1,0c0,0,0,0,0.1,0c0,0,0,0,0,0
	c0,0,0,0,0.1,0c0,0,0,0,0,0c0,0,0,0,0.1,0c0,0,0,0,0,0c0,0,0,0,0.1,0c0,0,0,0,0,0c0,0,0,0,0.1,0c0,0,0,0,0,0c0,0,0,0,0,0
	c0,0,0,0,0,0c0,0,0,0,0,0c0,0,0,0,0,0c0,0,0,0,0,0c0,0,0,0,0,0c0,0,0,0,0,0c0,0,0,0,0,0c0,0,0,0,0,0c0,0,0,0,0,0c0,0,0,0,0,0
	c0,0,0,0,0,0c0,0,0,0,0-0.1c0,0,0,0,0,0c0,0,0,0,0-0.1c0,0,0,0,0,0c0,0,0,0,0-0.1c0,0,0,0,0,0c0-0.1,0-0.2,0-0.4
	c0.3-1.3,2.4-2.1,4.3-2.1c2,0,4.3,1,4.3,2.4V54c-1.3,0.4-2.2,1.6-2.2,3v7c0,3.9,3.1,7,7,7c3.9,0,7-3.1,7-7c0-1.8-1.5-3.2-3.2-3.2
	c-1.8,0-3.2,1.5-3.2,3.2c0,0.3-0.2,0.5-0.5,0.5c-0.3,0-0.5-0.2-0.5-0.5v-7c0-1.4-0.9-2.6-2.2-3V37.9c0-0.1,0-0.1,0-0.2
	c0-1.4,2.3-2.4,4.3-2.4c1.9,0,3.9,0.8,4.2,2c0,0.2,0,0.3,0,0.5c0,0.6,0.5,1,1.1,1c0,0,0,0,0,0c0,0,0,0,0,0c0,0,0,0,0,0c0,0,0,0,0,0
	c0.6,0,1.1-0.5,1.1-1.1c0-1.3,1.7-2.4,3.8-2.4c1.7,0,3.2,0.8,3.6,1.8c0,0.3,0.1,0.5,0.1,0.8c0.1,0.5,0.5,0.9,1.1,0.9c0,0,0,0,0,0
	c0,0,0,0,0,0c0,0,0,0,0,0c0.6,0,1.1-0.5,1.1-1.1c0-1.3,1.5-2.4,3.2-2.4c1.7,0,3.2,1.1,3.2,2.4c0,0.6,0.5,1.1,1.1,1.1c0,0,0,0,0.1,0
	c0,0,0,0,0.1,0c0.1,0,0.2,0,0.2,0C70.6,38.6,70.9,38,70.8,37.4z M19.5,34.5c-1-0.8-2.3-1.4-3.8-1.4c-0.7,0-1.4,0.1-2.1,0.4
	c2-5.6,5.2-10.7,9.2-14.4c2.2-2,4.5-3.7,7-4.9c-1.1,1-2.1,2.1-3,3.4C23.5,22,21,27.9,19.5,34.5z M29,34.4c-1.1-0.8-2.5-1.3-4.1-1.3
	c-1.1,0-2.1,0.2-2.9,0.6c2.4-10.2,7.4-17.9,13.3-20.8c-0.9,1.3-1.8,2.9-2.6,4.9C31,22.1,29.7,27.9,29,34.4z M35.1,33.1
	c-1.5,0-2.8,0.3-3.9,0.9c0.7-6,2-11.4,3.5-15.4c1.4-3.6,3.1-6,4.7-6.7v3.7v2.9v15.8C38.3,33.5,36.8,33.1,35.1,33.1z M44.3,66.8
	c1.5,0,2.7-1.2,2.7-2.7c0-0.6,0.5-1.1,1.1-1.1c0.6,0,1.1,0.5,1.1,1.1c0,2.7-2.2,4.8-4.8,4.8c-2.7,0-4.8-2.2-4.8-4.8v-7
	c0-0.6,0.5-1.1,1.1-1.1c0.6,0,1.1,0.5,1.1,1.1v7C41.6,65.6,42.8,66.8,44.3,66.8z M45.9,33.1c-1.7,0-3.2,0.4-4.3,1.1V16.1v-0.5v-3.7
	c1.6,0.7,3.3,3.1,4.7,6.7c1.6,4,2.8,9.3,3.5,15.4C48.7,33.5,47.4,33.1,45.9,33.1z M56.2,33.1c-1.6,0-3.1,0.5-4.1,1.3
	c-0.7-6.5-2-12.2-3.7-16.5c-0.8-2-1.6-3.7-2.6-4.9c5.9,2.9,10.9,10.5,13.3,20.8C58.2,33.3,57.2,33.1,56.2,33.1z M65.3,33.1
	c-1.5,0-2.9,0.5-3.8,1.4c-1.4-6.6-3.9-12.5-7.2-16.9c-1-1.3-2-2.5-3-3.5c2.5,1.2,4.8,2.8,7,4.9c4,3.8,7.2,8.8,9.2,14.4
	C66.8,33.2,66.1,33.1,65.3,33.1z"/>
</svg>
