<?xml version="1.0" encoding="utf-8"?>
<!-- Generator: Adobe Illustrator 20.1.0, SVG Export Plug-In . SVG Version: 6.00 Build 0)  -->
<svg version="1.1" id="Layer_1" xmlns="http://www.w3.org/2000/svg" xmlns:xlink="http://www.w3.org/1999/xlink" x="0px" y="0px"
	 viewBox="0 0 80 80" style="enable-background:new 0 0 80 80;" xml:space="preserve">
<style type="text/css">
	.st0{fill:#FCB91E;}
	.st1{fill:#FFFFFF;}
</style>
<circle class="st0" cx="40" cy="40" r="40"/>
<g>
	<path class="st1" d="M69,47.5c-0.4-0.6-1.2-0.8-1.8-0.3L52.8,57l-3.2-4.3c-0.3-0.4-0.9-0.7-1.5-0.5c-0.7,0.2-1.1,1-0.8,1.7l2.6,7.8
		c0.1,0.3,0.3,0.6,0.5,0.8c0.9,1,2.3,1,3.3,0.2l0.2-0.2l14.9-13.3C69.3,48.8,69.4,48.1,69,47.5L69,47.5z M69,47.5"/>
	<path class="st1" d="M45,58H21.3V22.5H56v27.3c0,0.7,0.6,1.3,1.3,1.3c0.7,0,1.3-0.6,1.3-1.3V21.2c0-0.7-0.6-1.3-1.3-1.3H20
		c-0.7,0-1.3,0.6-1.3,1.3v38.1c0,0.7,0.6,1.3,1.3,1.3h25c0.7,0,1.3-0.6,1.3-1.3C46.3,58.6,45.7,58,45,58L45,58z M45,58"/>
	<path class="st1" d="M49.2,28.1H28c-0.7,0-1.3,0.6-1.3,1.3c0,0.7,0.6,1.3,1.3,1.3h21.2c0.7,0,1.3-0.6,1.3-1.3
		C50.5,28.7,50,28.1,49.2,28.1L49.2,28.1z M49.2,28.1"/>
	<path class="st1" d="M49.2,33.8H28c-0.7,0-1.3,0.6-1.3,1.3c0,0.7,0.6,1.3,1.3,1.3h21.2c0.7,0,1.3-0.6,1.3-1.3
		C50.5,34.4,50,33.8,49.2,33.8L49.2,33.8z M49.2,33.8"/>
	<path class="st1" d="M49.2,39.5H28c-0.7,0-1.3,0.6-1.3,1.3c0,0.7,0.6,1.3,1.3,1.3h21.2c0.7,0,1.3-0.6,1.3-1.3
		C50.5,40.1,50,39.5,49.2,39.5L49.2,39.5z M49.2,39.5"/>
	<path class="st1" d="M50.5,46.5c0-0.7-0.6-1.3-1.3-1.3H28c-0.7,0-1.3,0.6-1.3,1.3c0,0.7,0.6,1.3,1.3,1.3h21.2
		C50,47.8,50.5,47.2,50.5,46.5L50.5,46.5z M50.5,46.5"/>
	<path class="st1" d="M28,50.5c-0.7,0-1.3,0.6-1.3,1.3c0,0.7,0.6,1.3,1.3,1.3h10.6c0.7,0,1.3-0.6,1.3-1.3c0-0.7-0.6-1.3-1.3-1.3H28z
		 M28,50.5"/>
</g>
</svg>
