<?xml version="1.0" encoding="utf-8"?>
<!-- Generator: Adobe Illustrator 20.1.0, SVG Export Plug-In . SVG Version: 6.00 Build 0)  -->
<svg version="1.1" id="Layer_1" xmlns="http://www.w3.org/2000/svg" xmlns:xlink="http://www.w3.org/1999/xlink" x="0px" y="0px"
	 viewBox="0 0 80 80" style="enable-background:new 0 0 80 80;" xml:space="preserve">
<style type="text/css">
	.st0{fill:#FCB91E;}
	.st1{fill:#FFFFFF;}
</style>
<circle class="st0" cx="40" cy="40" r="40"/>
<g>
	<path class="st1" d="M68.6,30.4c-1.6-1.6-4.3-1.6-5.9,0c-0.8,0.8-1.2,1.8-1.2,3c0,0.6,0.1,1.2,0.4,1.7l-10.8,8.5
		c-1.2-0.6-2.7-0.6-3.9,0l-10.8-8.5c0.7-1.5,0.4-3.4-0.9-4.7c-1.6-1.6-4.3-1.6-5.9,0c-1.3,1.3-1.5,3.1-0.9,4.7L18,43.6
		c-1.6-0.8-3.6-0.6-4.9,0.7c-1.6,1.6-1.6,4.3,0,5.9c0.8,0.8,1.9,1.2,3,1.2c1.1,0,2.1-0.4,3-1.2c1.3-1.3,1.5-3.1,0.9-4.7l10.8-8.5
		c0.6,0.3,1.3,0.5,2,0.5c0.7,0,1.4-0.2,2-0.5l10.8,8.5c-0.7,1.5-0.4,3.4,0.9,4.7c0.8,0.8,1.9,1.2,3,1.2c1.1,0,2.1-0.4,3-1.2h0
		c1.3-1.3,1.5-3.1,0.9-4.7l10.8-8.5c0.6,0.3,1.3,0.5,2,0.5c1.1,0,2.1-0.4,3-1.2C70.2,34.7,70.2,32.1,68.6,30.4L68.6,30.4z
		 M17.1,48.3c-0.6,0.6-1.5,0.6-2.1,0c-0.6-0.6-0.6-1.5,0-2.1c0.3-0.3,0.7-0.4,1-0.4c0.4,0,0.8,0.1,1,0.4
		C17.7,46.8,17.7,47.7,17.1,48.3L17.1,48.3z M31.6,34.4c-0.6-0.6-0.6-1.5,0-2.1c0.3-0.3,0.7-0.4,1-0.4c0.4,0,0.8,0.1,1,0.4
		c0.6,0.6,0.6,1.5,0,2.1C33.1,35,32.1,35,31.6,34.4L31.6,34.4z M50.2,48.3c-0.6,0.6-1.5,0.6-2.1,0c-0.6-0.6-0.6-1.5,0-2.1
		c0.3-0.3,0.7-0.4,1-0.4c0.4,0,0.8,0.1,1,0.4C50.7,46.8,50.7,47.7,50.2,48.3L50.2,48.3z M66.7,34.4c-0.6,0.6-1.5,0.6-2.1,0
		c-0.3-0.3-0.4-0.7-0.4-1c0-0.4,0.2-0.8,0.4-1c0.3-0.3,0.7-0.4,1-0.4c0.4,0,0.8,0.1,1,0.4C67.3,32.9,67.3,33.8,66.7,34.4L66.7,34.4z
		 M66.7,34.4"/>
</g>
</svg>
