<?xml version="1.0" encoding="utf-8"?>
<!-- Generator: Adobe Illustrator 20.1.0, SVG Export Plug-In . SVG Version: 6.00 Build 0)  -->
<svg version="1.1" id="Layer_1" xmlns="http://www.w3.org/2000/svg" xmlns:xlink="http://www.w3.org/1999/xlink" x="0px" y="0px"
	 viewBox="0 0 80 80" style="enable-background:new 0 0 80 80;" xml:space="preserve">
<style type="text/css">
	.st0{fill:#FCB91E;}
	.st1{fill:#FFFFFF;}
</style>
<g>
	<circle class="st0" cx="40" cy="40" r="40"/>
	<g>
		<path class="st1" d="M24.6,25c8.5-8.5,22.4-8.5,30.9,0l-2.6,2.6l11.6,3.9l-3.9-11.6L58,22.4c-10-10-26.1-10-36,0
			c-6.4,6.4-8.6,15.3-6.9,23.5l4.1,1.4C16.8,39.7,18.5,31,24.6,25L24.6,25z M24.6,25"/>
		<path class="st1" d="M60.7,33.6c2.5,7.6,0.7,16.2-5.3,22.3c-8.5,8.5-22.4,8.5-30.9,0l2.6-2.6l-11.6-3.9L19.4,61l3.9-3.9L22,58.5
			c10,10,26.1,10,36,0c6.4-6.4,8.6-15.3,6.9-23.5L60.7,33.6z M60.7,33.6"/>
	</g>
</g>
</svg>
