<svg width="16" height="16" viewBox="0 0 16 16" fill="none" xmlns="http://www.w3.org/2000/svg">
<circle cx="8" cy="8" r="8" fill="#F7B01C"/>
<path fill-rule="evenodd" clip-rule="evenodd" d="M4.53033 7.91938C4.23744 8.21227 4.23744 8.68714 4.53033 8.98004L5.76777 10.2175L6.82843 11.2781L7.88909 10.2175L11.2478 6.85872C11.5407 6.56582 11.5407 6.09095 11.2478 5.79806C10.955 5.50516 10.4801 5.50516 10.1872 5.79806L6.82843 9.15681L5.59099 7.91938C5.2981 7.62648 4.82322 7.62648 4.53033 7.91938Z" fill="white"/>
<mask id="mask0" mask-type="alpha" maskUnits="userSpaceOnUse" x="4" y="3" width="8" height="9">
<path fill-rule="evenodd" clip-rule="evenodd" d="M4.53033 7.91938C4.23744 8.21227 4.23744 8.68714 4.53033 8.98004L5.76777 10.2175L6.82843 11.2781L7.88909 10.2175L11.2478 6.85872C11.5407 6.56582 11.5407 6.09095 11.2478 5.79806C10.955 5.50516 10.4801 5.50516 10.1872 5.79806L6.82843 9.15681L5.59099 7.91938C5.2981 7.62648 4.82322 7.62648 4.53033 7.91938Z" fill="white"/>
</mask>
<g mask="url(#mask0)">
<rect x="2" y="2" width="12" height="12" fill="white"/>
</g>
</svg>
