<?xml version="1.0" standalone="no"?>
<!DOCTYPE svg PUBLIC "-//W3C//DTD SVG 1.1//EN" "http://www.w3.org/Graphics/SVG/1.1/DTD/svg11.dtd" >
<svg xmlns="http://www.w3.org/2000/svg">
<metadata>
This is a custom SVG font generated by IcoMoon.
<iconset id="appicon" name="appicon" href="gootoboo.com" grid="16"></iconset><author name="Petr Marasek" href="gootoboo.com"></author>
</metadata>
<defs>
<font id="appicon" horiz-adv-x="512" >
<font-face units-per-em="512" ascent="480" descent="-32" />
<missing-glyph horiz-adv-x="512" />
<glyph class="hidden" unicode="&#xf000;" d="M0,480L 512 -32L0 -32 z" horiz-adv-x="0" />
<glyph unicode="&#xe000;" d="M 391,359l0-270 L 121,89 L 121,359 L 391,359 z M 431,399L 81,399 l0-350 l 350,0 L 431,399 z" data-tags="checkbox-9" />
<glyph unicode="&#xe001;" d="M 391,359l0-270 L 121,89 L 121,359 L 391,359 z M 431,399L 81,399 l0-350 l 350,0 L 431,399 z M 324,292L 188,292 l0-136 l 136,0 L 324,292 z" data-tags="checkbox-8" />
<glyph unicode="&#xe002;" d="M 391,359l0-270 L 121,89 L 121,359 L 391,359 z M 431,399L 81,399 l0-350 l 350,0 L 431,399 z M 341,309L 171,309 l0-170 l 170,0 L 341,309 z" data-tags="checkbox-7" />
<glyph unicode="&#xe003;" d="M 391,359l0-270 L 121,89 L 121,359 L 391,359 z M 431,399L 81,399 l0-350 l 350,0 L 431,399 z M 355.645,158.86l-64.162,64.152l 64.154,64.16
	l-34.495,34.473l-64.144-64.154l-64.154,64.145l-34.488-34.467l 64.164-64.16l-64.156-64.164l 34.467-34.49l 64.171,64.176
	l 64.171-64.168L 355.645,158.86z" data-tags="checkbox-6" />
<glyph unicode="&#xe004;" d="M 215.056,49l0,40 l 82,0 l0-40 L 215.056,49 z M 215.056,399l0-40 l 82,0 L 297.056,399 L 215.056,399 z M 81,183.332l 40,0 l0,82.001 L 81,265.333 L 81,183.332 z
	 M 337.056,359L 391,359 l0-53.667 l 40,0 L 431,399 l-93.944,0 L 337.056,359 z M 175.056,89L 121,89 l0,54.332 L 81,143.332 L 81,49 l 94.056,0 L 175.056,89 z M 391,143.332L 391,89 l-53.944,0 l0-40 L 431,49 l0,94.332 
	L 391,143.332 z M 431,265.333l-40,0 l0-82.001 l 40,0 L 431,265.333 z M 121,305.333L 121,359 l 54.056,0 L 175.056,399 L 81,399 l0-93.667 L 121,305.333 z M 335.388,312.395L 227.381,204.389
	l-46.783,46.794l-34.69-34.697l 81.476-81.498l 142.711,142.724L 335.388,312.395z" data-tags="checkbox-5" />
<glyph unicode="&#xe005;" d="M 391,359l0-270 L 121,89 L 121,359 L 391,359 z M 431,399L 81,399 l0-350 l 350,0 L 431,399 z M 335.388,312.394L 227.381,204.389l-46.783,46.794
	l-34.69-34.697l 81.476-81.498L 370.094,277.71L 335.388,312.394z" data-tags="checkbox-4" />
<glyph unicode="&#xe006;" d="M 81,399l0-350 l 350,0 L 431,399 L 81,399 z M 227.383,134.987l-81.476,81.498l 34.69,34.697l 46.783-46.794l 108.007,108.005
	l 34.706-34.684L 227.383,134.987z" data-tags="checkbox-3" />
<glyph unicode="&#xe007;" d="M 124.753,255.901l 28.758,26.586c 33.639-16.278, 54.975-28.663, 92.784-55.614
	c 71.078,80.663, 118.045,121.585, 205.348,175.902L 461,381.25c-71.994-62.828-124.724-132.807-200.65-268.968
	C 213.522,167.436, 182.268,202.591, 124.753,255.901z M 361,220.809l0-135.584 L 91,85.225 l0,270 l 241.534,0 c 16.649,13.833, 33.921,26.877, 52.809,40L 51,395.225 
	l0-350 l 350,0 L 401,275.463 C 387.718,258.863, 374.525,240.835, 361,220.809z" data-tags="checkbox-2" />
<glyph unicode="&#xe008;" d="M 462.278,344.671L 245.289,127.666l-119.567,119.6l 50.911,50.92l 68.654-68.674L 411.346,395.571
	L 462.278,344.671z M 359.722,199.679L 359.722,89 l-270,0 L 89.722,359 l 242.627,0 l 40,40L 49.722,399 l0-350 l 350,0 L 399.722,239.682 L 359.722,199.679z" data-tags="checkbox-1" />
<glyph unicode="&#xe009;" d="M 256,410.028L 50,204.185l 42.507,0 l0-166.213 l 326.985,0 L 419.492,204.185 L 462,204.185 L 256,410.028z M 374.492,82.972l-73.767,0 l0,86.495 

	l-89.451,0 l0-86.495 l-73.768,0 L 137.506,228.010 L 256,346.413l 118.492-118.402L 374.492,82.972 z" data-tags="home-2" />
<glyph unicode="&#xe00a;" d="M 462,229.225l-30.644-30.645L 257.086,351.851L 80.571,197.166L 50,227.883L 257.158,413.066L 462,229.225z M 257.122,314.812

		l 157.098-136.1l0-143.779 L 100.023,34.933 L 100.023,177.631 L 257.122,314.812z M 296.428,172.594l-78.855,0 l0-92.928 l 78.855,0 L 296.428,172.594 z" data-tags="home-1" />
<glyph unicode="&#xe00b;" d="M 261.564,147.759c-11.241,0-20.358,9.117-20.358,20.362c0,11.24, 9.118,20.355, 20.358,20.355

	c 11.245,0, 20.359-9.115, 20.359-20.355C 281.924,156.876, 272.81,147.759, 261.564,147.759z M 277.572,207.935l0-3.661 

	c0,0-30.524,0-33.562,0l0,3.661 c0,10.364, 1.513,23.658, 13.545,35.216c 12.032,11.559, 27.068,21.107, 27.068,35.548

	c0,15.964-11.078,24.407-25.047,24.407c-23.277,0-24.796-24.139-25.371-29.454l-32.643,0 c 0.871,25.172, 11.508,60.38, 58.208,60.38

	c 40.469,0, 58.665-27.104, 58.665-52.521C 318.437,241.055, 277.572,234.028, 277.572,207.935z M 50.918,33.353

	C 67.583,66.5, 86.083,112, 85.135,143.724C 62.684,170.796, 50,205.684, 50,241.217c0,100.183, 97.19,173.431, 206,173.431

	c 108.132,0, 206-72.698, 206-173.431c0-104.894-115.562-202.853-274.119-163.914C 159.083,59.5, 95.583,41.5, 50.918,33.353z

	 M 256,374.531c-91.469,0-165.884-59.805-165.884-133.314c0-38.68, 16.694-63.037, 40.256-87.055

	c-4.789-35.662-16.289-66.662-16.289-66.662s 34,9, 72.629,31.56c 147.805-39.194, 235.171,46.094, 235.171,122.157

	C 421.883,314.727, 347.468,374.531, 256,374.531z" data-tags="help-4" />
<glyph unicode="&#xe00c;" d="M 256,414.647c-108.81,0-206-73.248-206-173.431c0-35.533, 12.684-70.421, 35.135-97.493

	C 86.083,112, 67.583,66.5, 50.918,33.353c 44.665,8.147, 108.165,26.147, 136.963,43.95C 346.438,38.364, 462,136.323, 462,241.217

	C 462,341.949, 364.132,414.647, 256,414.647z M 261.707,136.789c-12.264,0-22.21,9.947-22.21,22.215c0,12.262, 9.946,22.205, 22.21,22.205

	c 12.268,0, 22.211-9.943, 22.211-22.205C 283.918,146.736, 273.975,136.789, 261.707,136.789z M 279.17,202.438l0-3.994 c0,0-33.3,0-36.613,0

	l0,3.994 c0,11.307, 1.65,25.809, 14.775,38.418c 13.127,12.61, 29.53,23.027, 29.53,38.78c0,17.415-12.085,26.627-27.325,26.627

	c-25.393,0-27.051-26.335-27.677-32.134l-35.61,0 C 197.199,301.59, 208.805,340, 259.75,340c 44.15,0, 64-29.568, 64-57.296

	C 323.75,238.569, 279.17,230.903, 279.17,202.438z" data-tags="help-3" />
<glyph unicode="&#xe00d;" d="M 256,390c 91.74,0, 166-74.244, 166-166c0-91.741-74.245-166-166-166c-91.741,0-166,74.245-166,166

	C 90,315.741, 164.244,390, 256,390 M 256,430C 142.229,430, 50,337.771, 50,224s 92.229-206, 206-206s 206,92.229, 206,206S 369.771,430, 256,430

	L 256,430z M 258.025,100.489c-14.546,0-26.343,11.797-26.343,26.349c0,14.543, 11.797,26.336, 26.343,26.336

	c 14.549,0, 26.342-11.793, 26.342-26.336C 284.367,112.286, 272.574,100.489, 258.025,100.489z M 278.735,178.354l0-4.739 

	c0,0-39.494,0-43.423,0l0,4.739 c0,13.408, 1.956,30.61, 17.523,45.565c 15.569,14.958, 35.024,27.312, 35.024,45.996

	c0,20.655-14.335,31.581-32.409,31.581c-30.116,0-32.085-31.234-32.827-38.112L 180.39,263.384 c 1.125,32.57, 14.891,78.127, 75.315,78.127

	c 52.363,0, 75.905-35.070, 75.905-67.957C 331.61,221.207, 278.735,212.114, 278.735,178.354z" data-tags="help-2" />
<glyph unicode="&#xe00e;" d="M 256,430C 142.229,430, 50,337.771, 50,224s 92.229-206, 206-206s 206,92.229, 206,206S 369.771,430, 256,430z

	 M 258.25,87.1c-16.162,0-29.27,13.107-29.27,29.275c0,16.16, 13.107,29.263, 29.27,29.263c 16.166,0, 29.27-13.103, 29.27-29.263

	C 287.52,100.207, 274.416,87.1, 258.25,87.1z M 281.262,173.615l0-5.266 c0,0-43.883,0-48.248,0l0,5.266 

	c0,14.898, 2.174,34.012, 19.471,50.628c 17.299,16.619, 38.916,30.346, 38.916,51.106c0,22.95-15.928,35.090-36.010,35.090

	c-33.463,0-35.65-34.705-36.475-42.347l-46.928,0 c 1.25,36.189, 16.545,86.808, 83.684,86.808c 58.182,0, 84.34-38.967, 84.34-75.508

	C 340.012,221.23, 281.262,211.127, 281.262,173.615z" data-tags="help-1" />
<glyph unicode="&#xe00f;" d="M 311.546,224c0-30.628-24.918-55.546-55.546-55.546c-30.629,0-55.548,24.918-55.548,55.546

	c0,30.629, 24.919,55.547, 55.548,55.547C 286.628,279.547, 311.546,254.629, 311.546,224z M 462,251.743l0-55.485 l-29.963-10.655

	c-11.449-4.071-20.643-12.796-25.297-24.021c-0.002-0.005-0.004-0.009-0.006-0.014c-4.653-11.218-4.328-23.908, 0.886-34.877

	l 13.66-28.737l-39.234-39.234l-28.902,13.738c-10.884,5.174-23.451,5.491-34.578,0.863c-0.005-0.002-0.009-0.004-0.014-0.006

	c-11.308-4.701-20.113-13.987-24.216-25.525L 283.741,18l-55.484,0 l-10.663,29.984c-4.068,11.438-12.784,20.621-23.998,25.271

	c-0.004,0.002-0.009,0.004-0.014,0.006c-11.229,4.657-23.93,4.33-34.909-0.889l-28.721-13.652l-39.234,39.234l 13.654,28.723

	c 5.222,10.985, 5.548,23.67, 0.888,34.906c-0.002,0.004-0.003,0.009-0.005,0.014c-4.647,11.206-13.844,19.935-25.274,24L 50,196.258

	l0,55.485 l 29.982,10.662c 11.438,4.067, 20.622,12.784, 25.271,23.998c 0.002,0.004, 0.004,0.009, 0.006,0.013

	c 4.656,11.229, 4.33,23.931-0.889,34.91l-13.653,28.721l 39.234,39.234l 28.723-13.653c 10.986-5.222, 23.67-5.548, 34.905-0.889

	c 0.005,0.001, 0.009,0.003, 0.014,0.005c 11.207,4.646, 19.936,13.843, 24.001,25.274L 228.257,430l 55.484,0 l 10.663-29.982

	c 4.067-11.438, 12.785-20.623, 24-25.273c 0.004-0.002, 0.009-0.003, 0.014-0.005c 11.229-4.657, 23.93-4.33, 34.908,0.889l 28.72,13.652

	l 39.234-39.234l-13.653-28.724c-5.222-10.985-5.548-23.668-0.889-34.903c 0.002-0.004, 0.004-0.009, 0.006-0.013

	c 4.646-11.208, 13.844-19.937, 25.274-24.001L 462,251.743z M 351.546,224c0,52.685-42.861,95.547-95.546,95.547

	c-52.686,0-95.548-42.862-95.548-95.547s 42.862-95.546, 95.548-95.546C 308.685,128.454, 351.546,171.315, 351.546,224z" data-tags="gear-2" />
<glyph unicode="&#xe010;" d="M 462,196.258l0,55.485 l-29.981,10.662c-11.431,4.065-20.628,12.794-25.274,24.001

	c-0.002,0.004-0.004,0.009-0.006,0.013c-4.659,11.235-4.333,23.918, 0.889,34.903l 13.653,28.724l-39.234,39.234l-28.72-13.652

	c-10.979-5.219-23.68-5.546-34.908-0.889c-0.005,0.002-0.010,0.003-0.014,0.005c-11.215,4.65-19.933,13.834-24,25.273L 283.741,430

	l-55.484,0 l-10.662-29.981c-4.065-11.431-12.794-20.627-24.001-25.274c-0.005-0.002-0.009-0.004-0.014-0.005

	c-11.235-4.66-23.919-4.333-34.905,0.889l-28.723,13.653l-39.234-39.234l 13.653-28.721c 5.219-10.979, 5.545-23.681, 0.889-34.91

	c-0.002-0.004-0.004-0.009-0.006-0.013c-4.649-11.214-13.834-19.931-25.271-23.998L 50,251.743l0-55.485 l 29.98-10.661

	c 11.431-4.065, 20.627-12.794, 25.274-24c 0.002-0.005, 0.003-0.010, 0.005-0.014c 4.66-11.236, 4.334-23.921-0.888-34.906l-13.654-28.723

	l 39.234-39.234l 28.721,13.652c 10.979,5.219, 23.681,5.546, 34.909,0.889c 0.005-0.002, 0.010-0.004, 0.014-0.006

	c 11.214-4.649, 19.93-13.833, 23.998-25.271L 228.257,18l 55.484,0 l 10.595,29.79c 4.103,11.538, 12.908,20.824, 24.216,25.525

	c 0.005,0.002, 0.009,0.004, 0.014,0.006c 11.127,4.628, 23.694,4.311, 34.578-0.863l 28.902-13.738l 39.234,39.234l-13.66,28.737

	c-5.214,10.969-5.539,23.659-0.886,34.877c 0.002,0.005, 0.004,0.009, 0.006,0.014c 4.654,11.225, 13.848,19.949, 25.297,24.021

	L 462,196.258z M 256,148.454c-41.724,0-75.548,33.823-75.548,75.546s 33.824,75.547, 75.548,75.547

	c 41.723,0, 75.546-33.824, 75.546-75.547S 297.723,148.454, 256,148.454z" data-tags="gear-1" />
<glyph unicode="&#xe011;" d="M 134.778,298.468l0-148.975 l 242.426,0 L 377.204,298.468 L 134.778,298.468 z M 461.999,278.462l-47.108,0 l0,57.693 l-57.693,0 

	L 357.198,383.263 l 104.802,0 L 462,278.462 z M 357.199,64.737l0,47.109 l 57.692,0 l0,57.691 L 462,169.537 l0-104.801 L 357.199,64.736 z M 50.001,169.538l 47.108,0 l0-57.693 l 57.693,0 

	l0-47.107 L 50.001,64.738 L 50.001,169.538 z M 154.801,383.263l0-47.109 L 97.108,336.154 l0-57.691 L 50,278.463 L 50,383.263 L 154.801,383.263 z" data-tags="fullscreen-3" />
<glyph unicode="&#xe012;" d="M 461.999,278.462l-47.108,0 l0,57.693 l-57.693,0 L 357.198,383.263 l 104.802,0 L 462,278.462 z M 357.199,64.737l0,47.109 l 57.692,0 

	l0,57.691 L 462,169.537 l0-104.801 L 357.199,64.736 z M 50.001,169.538l 47.108,0 l0-57.693 l 57.693,0 l0-47.107 L 50.001,64.738 L 50.001,169.538 z M 154.801,383.263l0-47.109 L 97.108,336.154 l0-57.691 

	L 50,278.463 L 50,383.263 L 154.801,383.263 z" data-tags="fullscreen-2" />
<glyph unicode="&#xe013;" d="M 331,149L 181,149 L 181,299 l 150,0 L 331,149 z M 188.841,114L 146,114 l0,42.842 l-54.132-54.131L 50,144.523L 50,18 l 126.525,0 

	l-41.815,41.869L 188.841,114z M 91.869,345.29L 50,303.475L 50,430 l 126.525,0 l-41.814-41.868L 188.843,334L 146,334 l0-42.841 L 91.869,345.29z

	 M 462,429.999l0-126.524 l-41.868,41.814L 366,291.157L 366,334 l-42.841,0 l 54.131,54.13l-41.815,41.869L 462,429.999 z M 420.131,102.709L 462,144.525L 462,18 

	L 335.476,18 l 41.813,41.867L 323.158,114L 366,114 l0,42.84 L 420.131,102.709z" data-tags="fullscreen-1" />
<glyph unicode="&#xe014;" d="M 373.38,341.38c 64.87-64.87, 64.882-169.878,0-234.76c-64.874-64.872-169.878-64.88-234.76,0
	c-64.87,64.87-64.882,169.878,0,234.76C 203.492,406.251, 308.498,406.261, 373.38,341.38z M 256,430C 142.229,430, 50,337.771, 50,224
	s 92.229-206, 206-206s 206,92.229, 206,206S 369.771,430, 256,430z M 371.906,254.5L 142.094,254.5 l0-65 l 229.812,0 L 371.906,254.5 z" data-tags="forbidden-3" />
<glyph unicode="&#xe015;" d="M 256,430C 142.229,430, 50,337.771, 50,224s 92.229-206, 206-206s 206,92.229, 206,206S 369.771,430, 256,430z
	 M 393.906,189.5L 120.094,189.5 l0,65 l 273.812,0 L 393.906,189.5 z" data-tags="forbidden-2" />
<glyph unicode="&#xe016;" d="M 256,430C 142.229,430, 50,337.771, 50,224s 92.229-206, 206-206s 206,92.229, 206,206S 369.771,430, 256,430z
	 M 373.38,341.38c 60.965-60.967, 63.399-155.172, 14.023-218.85L 154.53,355.403C 218.208,404.78, 312.419,402.34, 373.38,341.38z
	 M 138.62,106.62c-60.2,60.202-63.955,153.911-14.432,218.313l 232.744-232.745C 292.529,42.664, 198.821,46.421, 138.62,106.62z" data-tags="forbidden-1" />
<glyph unicode="&#xe017;" d="M 462,151.345L 318.584,151.345 l0-39.95 L 462,111.395 L 462,151.345 z M 280.588,59.661L 50,59.661 L 50,388.339 l 133.317,0 l 32.689-32.545

	c 9.043-9.004, 21.286-14.059, 34.047-14.059L 462,341.735 l0-150.296 l-40,0 L 422,301.735 L 250.054,301.735 c-23.5,0-45.615,9.131-62.269,25.713l-20.984,20.891L 90,348.339 

	l0-248.678 l 190.588,0 L 280.588,59.661 z" data-tags="folder-remove-2" />
<glyph unicode="&#xe018;" d="M 377.342,228.489c-46.756,0-84.66-37.902-84.66-84.658c0-46.758, 37.904-84.66, 84.66-84.66

	S 462,97.073, 462,143.831C 462,190.587, 424.098,228.489, 377.342,228.489z M 429.371,128.446L 327.779,128.446 l0,28.301 l 101.592,0 L 429.371,128.446 z

	 M 291.82,60.149L 50,60.149 L 50,388.829 l 108.35,0 l 32.688-32.545c 9.045-9.006, 21.287-14.061, 34.049-14.061L 462,342.223 l0-113.829 

	c-0.016,0.016-0.031,0.032-0.047,0.048c-46.77,46.77-122.463,46.759-169.224,0C 245.871,181.586, 246.386,106.557, 291.82,60.149z" data-tags="folder-remove-1" />
<glyph unicode="&#xe019;" d="M 430,357.735l0-77.303 l-63.119,0 l-75.040,57.707l-25.129-32.676l 32.62-25.031l-33.843,0 l-75.041,57.707

	l-44.379-57.707L 81,280.432 L 81,390.34 l 100.35,0 l 22.979-22.834c 6.298-6.258, 14.814-9.771, 23.693-9.771L 430,357.735 z M 462,245.472L 50,245.472 L 74,57.66l 358.583,0 

	L 462,245.472z" data-tags="folder-4" />
<glyph unicode="&#xe01a;" d="M 432.582,57.66L 74,57.66 L 50,279.961l 412,0 L 432.582,57.66z M 434.582,314.922l 7,42.813L 211.209,357.735 

	c-8.812,0-17.262,3.506-23.484,9.743l-22.81,22.861L 62.999,390.339 l 12-75.418L 434.582,314.921 z" data-tags="folder-3" />
<glyph unicode="&#xe01b;" d="M 166.801,348.34l 20.984-20.893c 16.654-16.581, 38.769-25.712, 62.27-25.712L 422,301.735 L 422,99.66 L 90,99.66 L 90,348.34 L 166.801,348.34 

	 M 183.317,388.34L 50,388.34 l0-328.68 l 412,0 L 462,341.735 L 250.055,341.735 c-12.762,0-25.004,5.055-34.048,14.059L 183.317,388.34z" data-tags="folder-2" />
<glyph unicode="&#xe01c;" d="M 225.087,341.735c-12.762,0-25.004,5.055-34.048,14.059L 158.35,388.34L 50,388.34 l0-328.68 l 412,0 L 462,341.735 L 225.087,341.735 z" data-tags="folder-1" />
<glyph unicode="&#xe01d;" d="M 112.747,18l-46.12,0 L 66.627,430 l 46.12,0 L 112.747,18 z M 404.217,291.441c-76.27,0-82.957,118.034-172.679,127.945
	c-31.306,3.457-66.098-11.568-88.045-30.382c0-3.085,0-17.212,0-36.803c 18.174,16.562, 47.211,36.958, 78.501,36.958
	c 70.067,0, 80.709-107.906, 160.393-126.068c-54.24-57.179-100.586-7.196-163.353-7.196c-27.504,0-60.079-11.085-75.541-33.529
	c0-25.744,0-43.974,0-43.974c 24.065,36.308, 50.117,46.757, 75.541,46.757c 37.588,0, 64.701-20.22, 105.072-20.22
	c 59.014,0, 93.172,44.886, 121.268,95.907C 429.596,294.291, 416.064,291.441, 404.217,291.441z" data-tags="flag-7" />
<glyph unicode="&#xe01e;" d="M 112.746,18l-46.12,0 L 66.626,430 l 46.12,0 L 112.746,18 z M 231.537,419.387c-37.604,4.153-73.106-17.577-88.045-30.382
	c0-12.641,0-210.612,0-210.612c 46.175,69.663, 99.651,44.127, 142.001,32.255c 83.684-23.46, 126.158,28.948, 159.881,90.189
	C 328.025,252.155, 335.199,407.937, 231.537,419.387z" data-tags="flag-6" />
<glyph unicode="&#xe01f;" d="M 347.404,172.377l-78.105,0 l0-25.905 l 62.132,0 l 11.523-22.93l-73.655,0 l0-12.454 l0-0.496 l 23.199,0 l 11.751-28.397L 160.83,82.195 
	l 12.341,28.397l 21.844,0 l0,0.496 l0,12.454 l-53.423,0 l-9.312,22.93l 62.734,0 l0,25.905 l-86.678,0 L 50,56.29l 355.741,0 L 347.404,172.377z
	 M 146.708,82.194l-54.7,0 l 28.979,57.666l 11.886-29.269l 26.176,0 L 146.708,82.194z M 306.514,110.592l 42.949,0 l 14.27-28.397l-45.468,0 
	L 306.514,110.592z M 247.707,111.088l-31.106,0 L 216.601,391.71 l 31.106,0 L 247.707,111.088 z M 462,370.972c0,0-19.613-17.293-45.409-17.293
	c-40.651,0-41.566,35.021-88.76,35.021c-25.518,0-49.31-11.856-59.387-20.493c0-8.525,0-146.204,0-146.204
	c 14.304,9.914, 36.036,20.333, 59.549,20.333c 44.57,0, 50.818-33.312, 90.546-33.312c 25.659,0, 43.461,16.437, 43.461,16.437L 462,370.972 z" data-tags="flag-5" />
<glyph unicode="&#xe020;" d="M 253.765,124.83c-10.604,4.327-22.65,7.633-35.453,9.945l0-30.413 
	c 25.839-5.235, 45.197-14.396, 45.584-24.308c-0.599-15.321-46.52-28.854-91.652-28.854c-45.189,0-91.146,13.53-91.711,28.854
	c 0.364,9.882, 19.608,19.016, 45.35,24.259l0,30.41 c-12.691-2.31-24.636-5.599-35.162-9.894C 55.291,110.376, 50,90.571, 50,80.055
	c0-10.519, 5.291-30.323, 40.72-44.777c 45.562-18.589, 117.514-18.575, 163.045,0c 35.429,14.454, 40.72,34.259, 40.72,44.777
	C 294.484,90.571, 289.193,110.376, 253.765,124.83z M 191.683,76.118l-39.239,0 L 152.444,426.659 l 39.239,0 L 191.683,76.118 z M 462,400.499
	c0,0-24.741-21.817-57.281-21.817c-51.281,0-52.435,44.179-111.965,44.179c-32.188,0-62.201-14.955-74.911-25.851
	c0-10.753,0-184.425,0-184.425c 18.041,12.503, 45.456,25.647, 75.115,25.647c 56.223,0, 64.104-42.021, 114.219-42.021
	c 32.367,0, 54.823,20.732, 54.823,20.732L 462,400.499 z" data-tags="flag-4" />
<glyph unicode="&#xe021;" d="M 156.999,141.132c0-24.872-19.264-57.213-19.264-57.213s-20.938,31.939-20.938,57.213
	c0,17.412,0,288.868,0,288.868l 40.201,0 C 156.999,430, 156.999,158.532, 156.999,141.132z M 193.999,38.762
	c0-11.466-25.613-20.762-57.211-20.762s-57.211,9.296-57.211,20.762c0,11.468, 25.613,20.762, 57.211,20.762
	S 193.999,50.229, 193.999,38.762z M 432.424,403.326c0,0-25.227-22.243-58.404-22.243c-52.285,0-53.463,45.044-114.16,45.044
	c-32.821,0-63.421-15.248-76.38-26.356c0-10.965,0-188.043,0-188.043c 18.395,12.749, 46.348,26.15, 76.589,26.15
	c 57.324,0, 65.361-42.843, 116.455-42.843c 33.002,0, 55.9,21.139, 55.9,21.139L 432.424,403.326 z" data-tags="flag-3" />
<glyph unicode="&#xe022;" d="M 120.204,18L 74.085,18 L 74.085,430 l 46.119,0 L 120.204,18 z M 370.591,373.612c-60.271,0-61.627,51.923-131.596,51.923
	c-37.832,0-73.106-17.577-88.045-30.381c0-2.916,0-16.023,0-34.458c 19.045,14.473, 56.147,34.093, 88.045,34.093
	c 54.415,0, 59.321-51.923, 131.596-51.923c 13.312,0, 25.629,2.256, 36.578,5.6L 407.169,199.37 c-7.838-4.454-19.763-9.476-33.69-9.476
	c-43.372,0-58.919,49.388-134.242,49.388c-30.006,0-63.334-9.358-88.286-26.1c0-20.834,0-34.79,0-34.79
	c 21.204,14.696, 53.426,30.144, 88.286,30.144c 66.080,0, 75.343-49.388, 134.242-49.388c 38.042,0, 64.437,24.369, 64.437,24.369L 437.916,399.254 
	C 437.915,399.254, 408.836,373.612, 370.591,373.612z" data-tags="flag-2" />
<glyph unicode="&#xe023;" d="M 120.204,18L 74.085,18 L 74.085,430 l 46.119,0 L 120.204,18 z M 437.915,399.254c0,0-29.079-25.642-67.324-25.642
	c-60.271,0-61.627,51.923-131.596,51.923c-37.832,0-73.106-17.577-88.045-30.381c0-12.64,0-216.762,0-216.762
	c 21.204,14.696, 53.426,30.144, 88.286,30.144c 66.080,0, 75.343-49.388, 134.242-49.388c 38.042,0, 64.437,24.369, 64.437,24.369L 437.915,399.254 z" data-tags="flag-1" />
<glyph unicode="&#xe024;" d="M 67.878,430L 444.122,430L 291.139,170.879L 291.139,18L 220.191,69.955L 220.191,170.879 z" data-tags="filter-1" />
<glyph unicode="&#xe025;" d="M 339.527,109.688L 171.505,109.688 l0,30 l 168.022,0 L 339.527,109.688 z M 339.495,165.104l-167.99,0 l0,30 l 167.99,0 L 339.495,165.104 z

	 M 339.495,220.438l-167.99,0 l0,30 l 167.99,0 L 339.495,220.438 z M 297.818,390l0-85.75 l 85.864,0 L 383.682,58 L 128.317,58 L 128.317,390 L 297.818,390  M 322.818,430L 88.317,430 l0-412 l 335.365,0 

	L 423.682,329.25 L 322.818,430z" data-tags="file-text-4" />
<glyph unicode="&#xe026;" d="M 256,109.688l-84.495,0 l0,30 L 256,139.688 L 256,109.688 z M 339.495,165.104l-167.99,0 l0,30 l 167.99,0 L 339.495,165.104 z

	 M 339.495,220.438l-167.99,0 l0,30 l 167.99,0 L 339.495,220.438 z M 297.818,390l0-85.75 l 85.864,0 L 383.682,58 L 128.317,58 L 128.317,390 L 297.818,390  M 322.818,430L 88.317,430 l0-412 l 335.365,0 

	L 423.682,329.25 L 322.818,430z" data-tags="file-text-3" />
<glyph unicode="&#xe027;" d="M 287.818,294.219L 287.818,430 L 88.317,430 l0-412 l 335.365,0 L 423.682,294.219 L 287.818,294.219 z M 353.495,88.688l-194.99,0 l0,30 l 194.99,0 

	L 353.495,88.688 z M 353.495,144.104l-194.99,0 l0,30 l 194.99,0 L 353.495,144.104 z M 353.495,199.438l-194.99,0 l0,30 l 194.99,0 L 353.495,199.438 z M 423.298,329.205L 322.805,329.205 

	L 322.805,429.698 L 423.298,329.205z" data-tags="file-text-2" />
<glyph unicode="&#xe028;" d="M 287.818,294.219L 287.818,430 L 88.317,430 l0-412 l 335.365,0 L 423.682,294.219 L 287.818,294.219 z M 256,88.688l-97.495,0 l0,30 L 256,118.688 L 256,88.688 z

	 M 353.495,144.104l-194.99,0 l0,30 l 194.99,0 L 353.495,144.104 z M 353.495,199.438l-194.99,0 l0,30 l 194.99,0 L 353.495,199.438 z M 423.298,329.205L 322.805,329.205 L 322.805,429.698 

	L 423.298,329.205z" data-tags="file-text-1" />
<glyph unicode="&#xe029;" d="M 427.456,329.205L 326.964,329.205 L 326.964,429.698 L 427.456,329.205z M 291.978,294.219L 291.978,430 L 160.476,430 l0-338 l 267.365,0 L 427.841,294.219 

	L 291.978,294.219 z M 392.159,58l-268,0 L 124.159,395 l-40,0 l0-377 l 308,0 L 392.159,58 z" data-tags="file-new-1" />
<glyph unicode="&#xe02a;" d="M 173.443,234.306c0,12.111, 9.82,21.932, 21.933,21.932c 12.111,0, 21.932-9.82, 21.932-21.932

	c0-12.113-9.82-21.933-21.932-21.933C 183.264,212.373, 173.443,222.192, 173.443,234.306z M 284.686,231.341l-36.355-51.654

	l-19.759,20.364l-55.747-75.149l 174.26,0 L 284.686,231.341z M 297.818,390l0-85.75 l 85.864,0 L 383.682,58 L 128.317,58 L 128.317,390 L 297.818,390  M 322.818,430L 88.317,430 l0-412 

	l 335.365,0 L 423.682,329.25 L 322.818,430z" data-tags="file-image-1" />
<glyph unicode="&#xe02b;" d="M 327.127,97.562c-20.496-20.893-44.049-44.24-71.129-70.598

	C 104.158,174.751, 61.472,229.112, 52.228,284.841C 40.919,353.015, 91.666,421.036, 170.738,421.036c 33.889,0, 64.686-13.021, 85.26-34.764

	c 20.577,21.742, 51.372,34.764, 85.26,34.764c 78.727,0, 129.875-67.682, 118.51-136.195c-2.959-17.84-9.221-35.48-21.73-56.42

	l-32.428,23.609c 39.516,71.135-4.75,129.006-64.352,129.006c-51.455,0-73.389-40.518-85.26-59.65

	c-11.148,17.971-31.195,59.65-85.26,59.65c-31.928,0-58.846-16.074-72.004-42.996c-33.691-68.938, 42.189-138.949, 157.264-254.256

	c 14.653,14.682, 28.655,28.619, 41.875,41.912L 327.127,97.562z M 445.436,155.964L 299.154,155.964 l0,40.748 l 146.281,0 L 445.435,155.964 z" data-tags="favorite-6" />
<glyph unicode="&#xe02c;" d="M 318.303,88.606c-18.367-18.562-39.027-38.986-62.305-61.643

	C 104.158,174.751, 61.472,229.112, 52.228,284.841C 40.919,353.015, 91.666,421.036, 170.738,421.036c 33.889,0, 64.684-13.021, 85.26-34.764

	c 20.575,21.742, 51.372,34.764, 85.258,34.764c 78.727,0, 129.877-67.68, 118.512-136.195c-2.080-12.535-5.795-24.973-12.156-38.523

	L 416.84,277.37c 17.014,53.145-18.9,103.666-75.584,103.666c-51.453,0-73.387-40.516-85.258-59.65

	c-11.15,17.971-31.195,59.65-85.26,59.65c-31.93,0-58.846-16.074-72.004-42.996c-33.693-68.938, 42.189-138.949, 157.264-254.256

	c 11.678,11.701, 22.936,22.924, 33.721,33.73L 318.303,88.606z M 446.436,197.712l-52.768,0 l0,52.768 L 352.92,250.48 l0-52.768 l-52.768,0 l0-40.748 l 52.768,0 

	l0-52.768 l 40.748,0 l0,52.768 l 52.768,0 L 446.436,197.712 z" data-tags="favorite-5" />
<glyph unicode="&#xe02d;" d="M 375.95,248.279c-46.756,0-84.66-37.902-84.66-84.658c0-46.757, 37.904-84.659, 84.66-84.659

	s 84.658,37.902, 84.658,84.659C 460.608,210.377, 422.706,248.279, 375.95,248.279z M 427.979,148.237L 326.388,148.237 l0,28.301 l 101.592,0 L 427.98,148.237 z

	 M 297.917,73.941c-13.615-13.557-27.631-27.51-41.915-41.955C 124.311,165.18, 13.592,258.163, 61.299,355.775

	c 40.471,82.806, 163.416,76.404, 194.703,4.258c 31.29,72.146, 154.235,78.548, 194.704-4.258c 16.143-33.027, 14.135-65.527-0.672-99.232

	c-20.387,16.435-46.307,26.279-74.531,26.279c-65.641,0-118.85-53.212-118.85-118.849

	C 256.653,127.985, 272.649,95.736, 297.917,73.941z" data-tags="favorite-4" />
<glyph unicode="&#xe02e;" d="M 375.95,248.279c-46.756,0-84.66-37.902-84.66-84.658c0-46.757, 37.904-84.659, 84.66-84.659

	s 84.658,37.902, 84.658,84.659C 460.608,210.377, 422.706,248.279, 375.95,248.279z M 427.979,148.237l-36.645,0 l0-36.645 l-28.303,0 l0,36.645 

	l-36.645,0 l0,28.301 l 36.645,0 l0,36.645 l 28.303,0 l0-36.645 l 36.645,0 L 427.979,148.237 z M 297.917,73.941c-13.615-13.557-27.631-27.51-41.915-41.955

	C 124.311,165.18, 13.592,258.163, 61.299,355.775c 40.47,82.806, 163.415,76.404, 194.703,4.258

	c 31.29,72.146, 154.235,78.548, 194.704-4.258c 16.143-33.027, 14.135-65.527-0.672-99.232c-20.387,16.435-46.307,26.279-74.531,26.279

	c-65.641,0-118.85-53.212-118.85-118.849C 256.653,127.985, 272.649,95.736, 297.917,73.941z" data-tags="favorite-3" />
<glyph unicode="&#xe02f;" d="M 255.998,26.965C 104.158,174.752, 61.472,229.112, 52.228,284.841

	C 40.919,353.015, 91.666,421.035, 170.738,421.035c 33.889,0, 64.684-13.021, 85.26-34.764c 20.575,21.743, 51.372,34.764, 85.258,34.764

	c 78.727,0, 129.877-67.68, 118.512-136.194C 450.725,230.324, 410.859,177.688, 255.998,26.965z M 170.738,381.035

	c-31.93,0-58.846-16.073-72.004-42.996c-33.693-68.938, 42.189-138.947, 157.264-254.254

	C 371.51,199.529, 446.879,269.258, 413.262,338.039c-13.158,26.923-40.076,42.996-72.006,42.996c-51.453,0-73.387-40.516-85.258-59.65

	C 244.847,339.356, 224.802,381.035, 170.738,381.035z" data-tags="favorite-2" />
<glyph unicode="&#xe030;" d="M 450.703,355.775C 410.233,438.581, 287.288,432.179, 256,360.033

	c-31.288,72.146-154.233,78.548-194.703-4.257C 13.59,258.163, 124.309,165.18, 256,31.986

	C 387.691,165.18, 498.41,258.163, 450.703,355.775z" data-tags="favorite-1" />
<glyph unicode="&#xe031;" d="M 256.494,103.858c-81.596,0-158.057,55.949-206.494,126.949c 53.886,75.543, 133.401,113.334, 206.494,113.334

	c 73.393,0, 153.516-37.396, 205.506-112.907C 417.427,156.952, 341.014,103.858, 256.494,103.858z M 93.602,230.227

	c 39.782-49.138, 98.528-91.364, 162.893-91.364c 87.674,0, 144.426,65.701, 163.012,90.982c-39.571,46.558-97.767,79.293-163.012,79.293

	C 171.679,309.138, 113.876,253.314, 93.602,230.227z M 258.352,223.917l-58.391,37.729c-7.036-10.865-11.12-23.819-11.12-37.729

	c0-38.39, 31.121-69.511, 69.511-69.511c 38.391,0, 69.512,31.121, 69.512,69.511s-31.121,69.511-69.512,69.511

	c-12.896,0-24.972-3.512-35.322-9.632L 258.352,223.917z" data-tags="eye-2" />
<glyph unicode="&#xe032;" d="M 256.25,338.334c-129.917,0-206.25-107-206.25-107s 83-121.668, 206.25-121.668

	C 389,109.666, 462,231.334, 462,231.334S 388.334,338.334, 256.25,338.334z M 258,144c-44.184,0-80,35.816-80,80

	c0,44.183, 35.816,80, 80,80c 44.183,0, 80-35.817, 80-80C 338,179.816, 302.183,144, 258,144z M 303,224c0-24.854-20.147-45-45-45

	c-24.854,0-45,20.146-45,45c0,2.979, 0.297,5.889, 0.85,8.706c 22.112-8.115, 43.895,13.234, 36.069,35.556

	c 2.623,0.477, 5.32,0.738, 8.081,0.738C 282.853,269, 303,248.853, 303,224z" data-tags="eye-1" />
<glyph unicode="&#xe033;" d="M 373.945,331.981c-2.779-9.269-11.122-37.539-13.439-47.735l-27.807-102.884

	c-1.39-5.097-1.854-9.732-1.854-13.903c0-7.414, 4.171-11.586, 12.050-11.586c 8.806,0, 19.928,4.636, 29.196,12.050

	c 22.709,17.61, 37.538,51.906, 37.538,87.591c0,42.636-19.928,79.713-53.295,100.566c-20.854,12.514-50.051,19.465-82.956,19.465

	c-97.785,0-166.375-64.882-166.375-156.644c0-88.981, 61.638-147.374, 154.789-147.374c 24.1,0, 49.588,3.707, 70.906,10.196

	c 18.074,5.561, 29.66,11.122, 51.906,24.562l 28.271-40.782c-25.027-14.831-36.149-20.393-57.932-26.879

	c-31.514-9.734-64.881-14.831-98.248-14.831c-65.346,0-116.326,18.538-152.937,55.149C 69.001,113.237, 50,162.362, 50,216.121

	c0,57.467, 19.466,107.056, 56.54,144.595c 42.637,42.636, 98.714,63.491, 170.546,63.491C 385.069,424.207, 462,354.69, 462,257.831

	c0-43.563-15.757-83.419-44.027-111.689c-24.1-24.1-55.613-38.003-86.663-38.003c-18.074,0-32.904,6.952-39.856,18.074

	c-2.317,3.707-2.781,6.025-4.171,14.367c-17.611-20.392-36.149-29.196-62.1-29.196c-45.882,0-75.078,34.294-75.078,87.127

	c0,78.321, 51.441,143.202, 113.078,143.202c 25.953,0, 38.931-6.486, 51.442-25.953l 4.635,16.222L 373.945,331.982 z M 278.478,194.34

	c 11.122,21.781, 18.536,50.051, 18.536,71.37c0,19-10.657,31.976-26.878,31.976c-17.611,0-33.832-11.586-45.418-33.367

	c-11.123-20.854-18.538-48.197-18.538-69.515c0-24.563, 9.269-37.539, 26.881-37.539C 250.207,157.265, 266.428,170.704, 278.478,194.34z

	" data-tags="email-6" />
<glyph unicode="&#xe034;" d="M 381.339,280.935c0,0-87.156,3.628-135.339-47.962c 22.631,98.556, 135.339,121.492, 135.339,121.492l0,30.29 

	L 472,317.699l-90.661-67.054L 381.339,280.935 z M 68.978,247.649L 246.001,382.817l 46.868-35.781c 8.265,6.265, 21.454,13.641, 32.543,19.223

	L 246,426.853L 40,269.909l0-201.014 l 118,110.575L 68.978,247.649z M 334.001,178.888L 452,68.471L 452,267.207 L 334.001,178.888z

	 M 40.499,21.147l 410.753,0 l-205.26,192.021L 40.499,21.147z" data-tags="email-5" />
<glyph unicode="&#xe035;" d="M 256.151,429.863L 50,272.618l0-254.481 l 0.354,0 L 462,18.137 L 462,272.618 L 256.151,429.863z M 256.151,385.119l 159.633-121.941

	l-0.311-0.063l-99.027-75.966l-60.499,60.175l-60.043-59.916l-99.549,75.945l-0.063,0.013L 256.151,385.119z M 84.956,227.963

	l 85.397-65.36l-85.397-85.396L 84.956,227.963 z M 110.353,53.166l 145.587,144.878l 144.658-144.878L 110.353,53.166 z M 427.043,76.561l-85.789,85.788

	l 85.789,65.614L 427.043,76.561 z" data-tags="email-4" />
<glyph unicode="&#xe036;" d="M 255.992,213.168L 50.5,21.147l 410.752,0 L 255.992,213.168z M 462,269.669l0-201.198 L 344.001,178.888

	l 89.168,68.671L 256.001,382.817L 78.977,247.649L 168,179.471L 50,68.896L 50,269.909 L 256,426.853L 462,269.669z" data-tags="email-3" />
<glyph unicode="&#xe037;" d="M 49.744,376.593l0-305.186 L 50.1,71.407 l 411.156,0 l 1,0 L 462.256,376.593 L 49.744,376.593 z M 415.533,341.593L 255.947,219.535

	L 96.473,341.593L 415.533,341.593 z M 84.744,306.494l 85.504-65.441L 84.744,155.55L 84.744,306.494 z M 85.1,106.407l 113.186,113.186l 57.654-44.127

	l 57.375,43.882l 112.941-112.94L 85.1,106.408 z M 427.256,154.903l-85.896,85.896l 85.896,65.695L 427.256,154.903 z" data-tags="email-2" />
<glyph unicode="&#xe038;" d="M 170.544,240.948L 50,333.546l0-213.142 L 170.544,240.948z M 460.928,376.593L 51.416,376.593 l 204.593-157.162

	L 460.928,376.593z M 313.355,219.304l-57.364-43.994l-57.454,44.135L 50.5,71.407l 410.751,0 L 313.355,219.304z M 341.367,240.788

	L 462,120.155L 462,333.307 L 341.367,240.788z" data-tags="email-1" />
<glyph unicode="&#xe039;" d="M 403.718,265.614l0-171.869 L 327.854,18L 68.353,18 L 68.353,404.977 l 225.904,0 l-40.018-39.998L 108.353,364.979 l0-306.981 l 194.501,0 

	l0,60.747 l 60.864,0 L 363.718,225.635 L 403.718,265.614z M 175.184,163.368l 89.993,20.368l-68.014,67.97L 175.184,163.368z M 373.566,430

	L 216.386,272.912l 70.084-70.041l 157.178,157.086L 373.566,430z" data-tags="edit-2" />
<glyph unicode="&#xe03a;" d="M 142.439,79.782L 50,79.782 l0,35 l 92.439,0 L 142.439,79.782 z M 196.5,178.476l 75.571-75.527l-99.992-22.633L 196.5,178.476z

	 M 462,290.39L 295.729,124.21l-77.871,77.828l 166.273,166.18L 462,290.39z M 385.161,329.448L 257.47,201.757l 17.587-17.586

	l 127.691,127.691L 385.161,329.448z" data-tags="edit-1" />
<glyph unicode="&#xe03b;" d="M 339.527,109.688L 171.505,109.688 l0,30 l 168.022,0 L 339.527,109.688 z M 339.495,165.104l-65.44,0 l0,30 l 65.44,0 L 339.495,165.104 z

	 M 339.495,220.438l-65.44,0 l0,30 l 65.44,0 L 339.495,220.438 z M 297.818,390l0-85.75 l 85.864,0 L 383.682,58 L 128.317,58 L 128.317,390 L 297.818,390  M 322.818,430L 88.317,430 l0-412 l 335.365,0 

	L 423.682,329.25 L 322.818,430z M 247,165.104l-75.495,0 l0,85.333 L 247,250.437 L 247,165.104 z" data-tags="document-file-2" />
<glyph unicode="&#xe03c;" d="M 287.818,294.219L 287.818,430 L 88.317,430 l0-412 l 335.365,0 L 423.682,294.219 L 287.818,294.219 z M 158.505,229.438L 254,229.438 l0-85.333 l-95.495,0 

	L 158.505,229.438 z M 353.495,88.688l-194.99,0 l0,30 l 194.99,0 L 353.495,88.688 z M 353.495,144.104L 279,144.104 l0,30 l 74.495,0 L 353.495,144.104 z M 353.495,199.438L 279,199.438 l0,30 l 74.495,0 

	L 353.495,199.438 z M 423.298,329.205L 322.805,329.205 L 322.805,429.698 L 423.298,329.205z" data-tags="document-file-1" />
<glyph unicode="&#xe03d;" d="M 256,462c-86.776,0-157.123-70.346-157.123-157.123c0-88.119, 76.398-146.244, 157.123-227.059
	c 80.725,80.815, 157.123,138.94, 157.123,227.059C 413.123,391.654, 342.776,462, 256,462z M 274.651,195.926l0,53 l-37.3,0 l0-53 
	c-48.674,7.919-87.111,46.316-95.094,94.969l 53.125,0 l0,37.3 l-53.173,0 c 7.871,48.795, 46.368,87.332, 95.142,95.267l0-53.299 l 37.3,0 L 274.651,423.464 
	c 48.775-7.935, 87.27-46.472, 95.143-95.267l-53.175,0 l0-37.3 l 53.125,0 C 361.763,242.243, 323.325,203.846, 274.651,195.926z
	 M 415.943,141.329l-46.573,0 c-10.791-11.555-22.269-23.042-34.153-34.66l 59.352,0 l 15.419-30.682l-106.417,0 c-5.853-5.683-11.757-11.46-17.678-17.33
	l 56.582,0 L 358.198,20.66l-191.902,0 l 16.512,37.997l 43.299,0 c-5.921,5.87-11.824,11.647-17.678,17.33l-67.875,0 l-12.459,30.682l 48.688,0 
	c-11.883,11.618-23.362,23.106-34.153,34.66l-46.573,0 L 18-14l 476,0 L 415.943,141.329z M 147.4,20.66L 74.208,20.66 l 38.776,77.159l 15.904-39.163
	l 35.023,0 L 147.4,20.66z M 361.228,58.657l 57.468,0 L 437.792,20.66l-60.839,0 L 361.228,58.657z" data-tags="crosshair-3" />
<glyph unicode="&#xe03e;" d="M 256,430c-93.061,0-168.5-75.439-168.5-168.5C 87.5,167, 169.43,104.667, 256,18
	c 86.57,86.667, 168.5,149, 168.5,243.5C 424.5,354.561, 349.061,430, 256,430z M 276,144.661l0,56.838 l-40,0 l0-56.838 
	c-52.199,8.492-93.42,49.669-101.979,101.846l 56.971,0 l0,40 l-57.023,0 C 142.411,338.836, 183.694,380.162, 236,388.672l0-57.157 l 40,0 L 276,388.672 
	c 52.307-8.51, 93.59-49.836, 102.032-102.165l-57.024,0 l0-40 l 56.972,0 C 369.421,194.33, 328.2,153.153, 276,144.661z" data-tags="crosshair-2" />
<glyph unicode="&#xe03f;" d="M 256,390c 44.34,0, 86.026-17.267, 117.38-48.62C 404.732,310.026, 422,268.34, 422,224
	c0-44.34-17.268-86.026-48.62-117.38C 342.026,75.268, 300.34,58, 256,58c-44.34,0-86.027,17.268-117.38,48.62
	C 107.267,137.974, 90,179.66, 90,224c0,44.34, 17.267,86.027, 48.62,117.38S 211.659,390, 256,390 M 256,430C 142.229,430, 50,337.771, 50,224
	c0-113.771, 92.229-206, 206-206c 113.771,0, 206,92.229, 206,206C 462,337.771, 369.771,430, 256,430L 256,430z M 272.319,89.516l0,60.271 
	l-32.64,0 l0-60.271 c-61.701,7.363-110.788,56.359-118.165,118.165l 60.271,0 l0,32.64 l-60.271,0 c 7.364,61.702, 56.358,110.789, 118.165,118.165
	l0-60.271 l 32.64,0 l0,60.271 c 61.7-7.363, 110.789-56.358, 118.165-118.165l-60.271,0 l0-32.64 l 60.271,0 
	C 383.121,145.982, 334.125,96.892, 272.319,89.516z" data-tags="crosshair-1" />
<glyph unicode="&#xe040;" d="M 294.737,215.867l 11.585,35.249l 49.854-97.159l-97.242-49.683l 11.148,35.057
	c0,0-128.158,67.099-117.645,188.436C 188.582,250.811, 294.737,215.867, 294.737,215.867z M 360.277,328.138L 360.277,429.999 L 50,429.999 l0-310.137 l 101.723,0 
	l0-101.861 L 462,18.001 L 462,328.138 L 360.277,328.138 z M 422,58.001L 191.723,58.001 L 191.723,161.176 c-16.594,16.263-29.747,32.959-40,49.757l0-51.070 L 90,159.863 L 90,389.999 l 230.277,0 
	l0-61.861 L 186.427,328.138 c 9.814-15.492, 23.18-28.824, 37.402-40L 422,288.138 L 422,58.001 z" data-tags="copy-2" />
<glyph unicode="&#xe041;" d="M 360.277,328.001L 360.277,429.999 L 50,429.999 l0-310.137 l 102,0 l0-101.861 l 310,0 l0,310 L 360.277,328.001 z M 90,159.862L 90,389.999 l 230.277,0 l0-61.998 
	L 152,328.001 l0-168.139 L 90,159.862 z M 421.5,58.501l-230,0 L 191.5,288.168 l 20.569,0 c 10.639,0, 20.745-4.656, 27.657-12.744l 19.023-22.256L 358,253.168 l 19.366,22.408
	c 6.911,7.996, 16.958,12.592, 27.528,12.592L 421.5,288.168 L 421.5,58.501 z M 379.479,141.419l-145.99,0 l0,29 l 145.99,0 L 379.479,141.419 z M 379.479,193.751l-145.99,0 
	l0,29 l 145.99,0 L 379.479,193.751 z M 233.488,118.001l 146.023,0 l0-29 L 233.488,89.001 L 233.488,118.001 z" data-tags="copy-1" />
<glyph unicode="&#xe042;" d="M 401.664,369.665L 401.664,78.336L 110.336,78.336 z" data-tags="caret-2a" />
<glyph unicode="&#xe043;" d="M 192.002,430L 398.002,224L 192.002,18 z" data-tags="caret-2" />
<glyph unicode="&#xe044;" d="M 418.999,223.999L 121.001,18L 121.001,430 z" data-tags="caret-1" />
<glyph unicode="&#xe045;" d="M 397.389,361.868c0-10.035-8.135-18.17-18.17-18.17s-18.171,8.135-18.171,18.17L 361.048,407.597 
	c0,10.035, 8.136,18.17, 18.171,18.17s 18.17-8.135, 18.17-18.17L 397.389,361.868 z M 151.889,407.679c0,10.035-8.136,18.172-18.17,18.172
	c-10.036,0-18.171-8.137-18.171-18.172l0-45.727 c0-10.035, 8.135-18.172, 18.171-18.172c 10.034,0, 18.17,8.137, 18.17,18.172L 151.889,407.679 z
	 M 419.352,381.149l0-18.617 c0-22.129-18.004-40.133-40.133-40.133c-22.13,0-40.134,18.004-40.134,40.133L 339.085,381.149 L 173.852,381.149 l0-18.533 
	c0-22.131-18.004-40.135-40.133-40.135c-22.13,0-40.134,18.004-40.134,40.135L 93.585,381.149 L 50,381.149 l0-359 l 412,0 l0,359 L 419.352,381.149 z M 422,62.149L 90,62.149 
	L 90,284.62 l 332,0 L 422,62.149 z M 240.885,92.907c 42.286,75.831, 71.652,114.805, 111.748,149.797l-5.213,11.987
	c-48.62-30.251-74.777-53.042-114.364-97.967c-21.056,15.011-32.938,21.909-51.673,30.974l-16.016-14.807
	C 197.398,143.203, 214.805,123.622, 240.885,92.907z" data-tags="calendar-3" />
<glyph unicode="&#xe046;" d="M 197.453,184.049l-58.905,0 l0,58.904 l 58.905,0 L 197.453,184.049 z M 286.452,242.953l-58.904,0 l0-58.904 l 58.904,0 L 286.452,242.953 z
	 M 375.452,242.953l-58.905,0 l0-58.904 l 58.905,0 L 375.452,242.953 z M 197.453,156.953l-58.905,0 l0-58.906 l 58.905,0 L 197.453,156.953 z M 286.452,156.953l-58.904,0 
	l0-58.906 l 58.904,0 L 286.452,156.953 z M 375.451,156.953l-58.904,0 l0-58.906 l 58.904,0 L 375.451,156.953 z M 397.389,361.869c0-10.035-8.135-18.171-18.17-18.171
	s-18.171,8.136-18.171,18.171L 361.048,407.598 c0,10.034, 8.136,18.17, 18.171,18.17s 18.17-8.136, 18.17-18.17L 397.389,361.869 z M 151.889,407.68
	c0,10.035-8.136,18.171-18.17,18.171c-10.036,0-18.171-8.136-18.171-18.171l0-45.728 c0-10.035, 8.135-18.171, 18.171-18.171
	c 10.034,0, 18.17,8.136, 18.17,18.171L 151.889,407.68 z M 419.352,381.149l0-18.616 c0-22.13-18.004-40.134-40.133-40.134
	c-22.13,0-40.134,18.004-40.134,40.134L 339.085,381.149 L 173.852,381.149 l0-18.533 c0-22.13-18.004-40.134-40.133-40.134
	c-22.13,0-40.134,18.004-40.134,40.134L 93.585,381.149 L 50,381.149 l0-359 l 412,0 l0,359 L 419.352,381.149 z M 422,62.149L 90,62.149 L 90,284.62 l 332,0 L 422,62.149 z" data-tags="calendar-2" />
<glyph unicode="&#xe047;" d="M 397.389,361.869c0-10.035-8.135-18.171-18.17-18.171s-18.171,8.136-18.171,18.171L 361.048,407.598 
	c0,10.034, 8.136,18.17, 18.171,18.17s 18.17-8.136, 18.17-18.17L 397.389,361.869 z M 151.889,407.68c0,10.035-8.136,18.171-18.17,18.171
	c-10.036,0-18.171-8.136-18.171-18.171l0-45.728 c0-10.035, 8.135-18.171, 18.171-18.171c 10.034,0, 18.17,8.136, 18.17,18.171L 151.889,407.68 z
	 M 419.352,381.149l0-18.616 c0-22.13-18.004-40.134-40.133-40.134c-22.13,0-40.134,18.004-40.134,40.134L 339.085,381.149 L 173.852,381.149 l0-18.533 
	c0-22.13-18.004-40.134-40.133-40.134c-22.13,0-40.134,18.004-40.134,40.134L 93.585,381.149 L 50,381.149 l0-359 l 412,0 l0,359 L 419.352,381.149 z M 422,62.149L 90,62.149 
	L 90,284.62 l 332,0 L 422,62.149 z M 266.161,144.823c0,14.731-7.681,26.239-20.387,31.124c 9.716,4.852, 15.363,14.818, 15.363,27.61
	c0,24.714-24.103,39.482-47.404,39.482c-27.117,0-47.591-16.986-48.831-50.757l 30.196,0 c-0.26,13.972, 4.987,24.15, 18.828,24.15
	c 8.249,0, 17.128-4.996, 17.128-15.967c0-13.849-14.992-15.833-28.788-14.627l0-23.504 c 19.606,0, 31.3-1.244, 31.3-18.093
	c0-13.3-10.058-19.253-20.024-19.253c-15.118,0-21.29,11.277-21.835,26.663l-29.981,0 c-0.568-34.747, 20.488-53.076, 52.201-53.076
	C 242.262,98.577, 266.161,115.896, 266.161,144.823z M 345.377,101.091L 345.377,240.335 l-25.556,0 c-3.17-21.188-18.279-27.386-39.884-26.801
	l0-24.729 l 34.004,0 l0-87.714 L 345.377,101.091 z" data-tags="calendar-1" />
<glyph unicode="&#xe048;" d="M 316.945,222.481L 316.945,18 L 214.67,108.443L 112.395,18L 112.395,430 l 135.297,0 c-14.451-10.512-26.316-24.227-34.535-40
	l-60.762,0 l0-283.23 l 62.275,55.070l 62.275-55.070L 276.945,228.881 C 289.514,224.479, 302.996,222.236, 316.945,222.481z M 314.946,421.775
	c-46.756,0-84.659-37.903-84.659-84.659s 37.903-84.659, 84.659-84.659s 84.659,37.903, 84.659,84.659S 361.702,421.775, 314.946,421.775z
	 M 300.543,291.516l-39.997,40.009l 17.030,17.033l 22.966-22.973l 53.022,53.021l 17.038-17.026L 300.543,291.516z" data-tags="bookmark-8" />
<glyph unicode="&#xe049;" d="M 316.945,222.482L 316.945,18 L 214.67,108.443L 112.395,18L 112.395,430 l 135.297,0 
	c-29.299-21.309-47.404-55.15-47.404-92.883C 200.287,272.928, 252.854,221.354, 316.945,222.482z M 314.946,421.775
	c-46.756,0-84.659-37.903-84.659-84.659s 37.903-84.659, 84.659-84.659s 84.659,37.903, 84.659,84.659S 361.702,421.775, 314.946,421.775z
	 M 300.543,291.516l-39.997,40.009l 17.030,17.033l 22.966-22.973l 53.022,53.021l 17.038-17.026L 300.543,291.516z" data-tags="bookmark-7" />
<glyph unicode="&#xe04a;" d="M 314.947,421.774c-46.756,0-84.66-37.902-84.66-84.658c0-46.757, 37.904-84.659, 84.66-84.659
	s 84.658,37.902, 84.658,84.659C 399.605,383.872, 361.703,421.774, 314.947,421.774z M 366.977,321.732L 265.385,321.732 l0,28.301 l 101.592,0 L 366.977,321.732 z
	 M 316.945,222.481L 316.945,18 L 214.67,108.443L 112.395,18L 112.395,430 l 135.297,0 c-14.451-10.512-26.316-24.227-34.535-40l-60.762,0 l0-283.23 l 62.275,55.070
	l 62.275-55.070L 276.945,228.881 C 289.514,224.479, 302.996,222.236, 316.945,222.481z" data-tags="bookmark-6" />
<glyph unicode="&#xe04b;" d="M 314.947,421.774c-46.756,0-84.66-37.902-84.66-84.658c0-46.757, 37.904-84.659, 84.66-84.659
	s 84.658,37.902, 84.658,84.659C 399.605,383.872, 361.703,421.774, 314.947,421.774z M 366.977,321.732l-36.645,0 l0-36.645 l-28.303,0 l0,36.645 
	l-36.645,0 l0,28.301 l 36.645,0 L 302.029,386.678 l 28.303,0 l0-36.645 l 36.645,0 L 366.977,321.732 z M 316.945,222.481L 316.945,18 L 214.67,108.443L 112.395,18L 112.395,430 l 135.297,0 
	c-14.451-10.512-26.316-24.227-34.535-40l-60.762,0 l0-283.23 l 62.275,55.070l 62.275-55.070L 276.945,228.881 
	C 289.514,224.479, 302.996,222.236, 316.945,222.481z" data-tags="bookmark-5" />
<glyph unicode="&#xe04c;" d="M 314.947,421.774c-46.756,0-84.66-37.902-84.66-84.658c0-46.757, 37.904-84.659, 84.66-84.659
	s 84.658,37.902, 84.658,84.659C 399.605,383.872, 361.703,421.774, 314.947,421.774z M 366.977,321.732L 265.385,321.732 l0,28.301 l 101.592,0 L 366.977,321.732 z
	 M 316.945,222.481L 316.945,18 L 214.67,108.443L 112.395,18L 112.395,430 l 135.297,0 c-29.299-21.31-47.404-55.15-47.404-92.884
	C 200.287,272.927, 252.854,221.354, 316.945,222.481z" data-tags="bookmark-4" />
<glyph unicode="&#xe04d;" d="M 314.947,421.774c-46.756,0-84.66-37.902-84.66-84.658c0-46.757, 37.904-84.659, 84.66-84.659
	s 84.658,37.902, 84.658,84.659C 399.605,383.872, 361.703,421.774, 314.947,421.774z M 366.977,321.732l-36.645,0 l0-36.645 l-28.303,0 l0,36.645 
	l-36.645,0 l0,28.301 l 36.645,0 L 302.029,386.678 l 28.303,0 l0-36.645 l 36.645,0 L 366.977,321.732 z M 316.945,222.481L 316.945,18 L 214.67,108.443L 112.395,18L 112.395,430 l 135.297,0 
	c-29.299-21.31-47.404-55.15-47.404-92.884C 200.287,272.927, 252.854,221.354, 316.945,222.481z" data-tags="bookmark-3" />
<glyph unicode="&#xe04e;" d="M 318.275,390l0-283.23 L 256,161.84l-62.275-55.070L 193.725,390 L 318.275,390  M 358.275,430L 153.725,430 l0-412 L 256,108.443
	L 358.275,18L 358.275,430 L 358.275,430z" data-tags="bookmark-2" />
<glyph unicode="&#xe04f;" d="M 358.275,18L 256,108.443L 153.725,18L 153.725,430 l 204.551,0 L 358.276,18 z" data-tags="bookmark-1" />
<glyph unicode="&#xe050;" d="M 279.407,328.622L 279.407,406.28L 462,223.999L 279.407,41.72L 279.407,119.378L 50,119.378L 50,328.622 

	z" data-tags="arrow-17" />
<glyph unicode="&#xe051;" d="M 256,390c 91.742,0, 166-74.245, 166-166c0-91.741-74.244-166-166-166c-91.742,0-166,74.245-166,166

	C 90,315.741, 164.246,390, 256,390z M 256,430C 142.23,430, 50,337.771, 50,224s 92.23-206, 206-206c 113.771,0, 206,92.229, 206,206

	S 369.771,430, 256,430z M 303.52,203.071l0-32.969 l 77.518,77.386l-77.518,77.385l0-32.97 c0,0-136.162-27.71-163.502-146.774

	C 198.227,207.454, 303.52,203.071, 303.52,203.071z" data-tags="arrow-16" />
<glyph unicode="&#xe052;" d="M 256,430C 142.229,430, 50,337.771, 50,224s 92.229-206, 206-206c 113.771,0, 206,92.229, 206,206

	S 369.771,430, 256,430z M 307.77,162.892l0,36.633 c0,0-116.992,4.869-181.67-64.382c 30.379,132.294, 181.67,163.083, 181.67,163.083

	l0,36.633 l 86.131-85.982L 307.77,162.892z" data-tags="arrow-15" />
<glyph unicode="&#xe053;" d="M 294.56,126.929l 0.003,0.003L 462,242.677L 294.56,358.426l0-49.313 c0,0-203.665-41.447-244.56-219.538

	c 87.066,93.224, 244.56,86.668, 244.56,86.668L 294.56,126.929 L 294.56,126.929z" data-tags="arrow-14" />
<glyph unicode="&#xe054;" d="M 366.041,222.999L 205.123,111.76L 205.123,334.239 L 366.041,222.999z M 256,390c 91.742,0, 166-74.245, 166-166

	c0-91.741-74.245-166-166-166c-91.742,0-166,74.245-166,166C 90,315.741, 164.245,390, 256,390z M 256,430C 142.229,430, 50,337.771, 50,224

	s 92.229-206, 206-206s 206,92.229, 206,206S 369.771,430, 256,430z" data-tags="arrow-13" />
<glyph unicode="&#xe055;" d="M 256,430C 142.229,430, 50,337.771, 50,224s 92.229-206, 206-206s 206,92.229, 206,206S 369.771,430, 256,430z

	 M 197.601,100.4L 197.601,347.6 l 178.799-123.601L 197.601,100.4z" data-tags="arrow-12" />
<glyph unicode="&#xe056;" d="M 165.001,344.188l 173.861-120.188L 165.001,103.812L 165.001,344.188  M 120.001,430l0-412 l 297.998,205.999L 120.001,430

	L 120.001,430z" data-tags="arrow-11" />
<glyph unicode="&#xe057;" d="M 418.999,223.999L 121.001,18L 121.001,430 z" data-tags="arrow-10" />
<glyph unicode="&#xe058;" d="M 172.824,430L 379.176,223.999L 172.824,18 z" data-tags="arrow-9" />
<glyph unicode="&#xe059;" d="M 215.119,298.642L 344.401,224l-129.282-74.642L 262.9,224L 215.119,298.642 M 77.599,430L 209.47,224

	L 77.599,18l 356.803,206L 77.599,430L 77.599,430z" data-tags="arrow-8" />
<glyph unicode="&#xe05a;" d="M 434.401,224L 77.599,18L 209.47,224L 77.599,430 z" data-tags="arrow-7" />
<glyph unicode="&#xe05b;" d="M 229.312,430L 79.668,430L 284.688,224L 79.668,18L 229.312,18L 434.332,224 z" data-tags="arrow-6" />
<glyph unicode="&#xe05c;" d="M 153.49,430L 153.49,319.701L 248.736,224L 153.49,128.299L 153.49,18L 358.51,224 z" data-tags="arrow-5" />
<glyph unicode="&#xe05d;" d="M 142.332,375.114L 197.48,430L 402.5,224L 197.48,18L 142.332,72.887L 292.727,224 z" data-tags="arrow-4" />
<glyph unicode="&#xe05e;" d="M 160.879,167.613L 160.879,274.391 l 117.064,0 l0,39.627 l 93.178-93.016l-93.178-93.018l0,39.629 L 160.879,167.613 z M 90,224

	c0-91.756, 74.258-166, 166-166c 91.755,0, 166,74.258, 166,166c0,91.755-74.258,166-166,166C 164.245,390, 90,315.741, 90,224z M 462,224

	c0-113.771-92.229-206-206-206S 50,110.229, 50,224c0,113.771, 92.229,206, 206,206S 462,337.771, 462,224z" data-tags="arrow-3" />
<glyph unicode="&#xe05f;" d="M 255.945,430c-113.771,0-206-92.229-206-206s 92.229-206, 206-206s 206,92.229, 206,206S 369.716,430, 255.945,430

	z M 281.217,117.649l0,44.031 L 151.145,161.68 L 151.145,280.322 l 130.072,0 l0,44.031 l 103.53-103.352L 281.217,117.649z" data-tags="arrow-2" />
<glyph unicode="&#xe060;" d="M 248.371,17.543l0,96.598 L 56.816,114.141 L 56.816,333.859 l 191.555,0 L 248.371,430.457 L 455.184,224L 248.371,17.543z M 101.816,159.141

	l 191.555,0 l0-33.090 L 391.49,224l-98.119,97.949l0-33.090 L 101.816,288.859 L 101.816,159.141 z" data-tags="arrow-1" />
<glyph unicode="&#xe061;" d="M 462,151.346l-51.733,0 l0,51.732 l-39.951,0 l0-51.732 l-51.732,0 l0-39.951 l 51.732,0 l0-51.732 l 39.951,0 l0,51.732 L 462,111.395 

	L 462,151.346 z M 280.587,59.662L 50,59.662 L 50,388.338 l 133.317,0 l 32.689-32.545c 9.044-9.004, 21.286-14.059, 34.048-14.059L 462,341.734 l0-100.297 l-40,0 l0,60.297 

	L 250.055,301.734 c-23.501,0-45.615,9.131-62.27,25.713l-20.984,20.891L 90,348.338 l0-248.676 l 190.587,0 L 280.587,59.662 z" data-tags="add-folder-2" />
<glyph unicode="&#xe062;" d="M 377.814,228.489c-46.756,0-84.66-37.902-84.66-84.658c0-46.758, 37.904-84.66, 84.66-84.66

	s 84.658,37.902, 84.658,84.66C 462.473,190.587, 424.57,228.489, 377.814,228.489z M 429.844,128.446l-36.645,0 l0-36.645 l-28.303,0 l0,36.645 

	l-36.645,0 l0,28.301 l 36.645,0 l0,36.645 l 28.303,0 l0-36.645 l 36.645,0 L 429.844,128.446 z M 292.293,60.149L 50.473,60.149 L 50.473,388.829 l 108.35,0 l 32.688-32.545

	c 9.045-9.006, 21.287-14.061, 34.049-14.061l 236.913,0 l0-113.829 c-0.016,0.016-0.031,0.032-0.047,0.048

	c-46.77,46.77-122.463,46.759-169.224,0C 246.344,181.586, 246.858,106.557, 292.293,60.149z" data-tags="add-folder-1" />
<glyph unicode="&#xe063;" d="M 100.96,286l0-268 l 300.668,0 L 401.628,286 L 100.96,286 z M 192.627,77.385c0-8.291-6.716-15.012-15-15.012
	s-15,6.721-15,15.012L 162.627,226.617 c0,8.291, 6.716,15.012, 15,15.012s 15-6.721, 15-15.012L 192.627,77.385 z M 266.294,77.385
	c0-8.291-6.716-15.012-15-15.012s-15,6.721-15,15.012L 236.294,226.617 c0,8.291, 6.716,15.012, 15,15.012s 15-6.721, 15-15.012L 266.294,77.385 z
	 M 339.961,77.385c0-8.291-6.716-15.012-15-15.012s-15,6.721-15,15.012L 309.961,226.617 c0,8.291, 6.716,15.012, 15,15.012s 15-6.721, 15-15.012
	L 339.961,77.385 z M 424.543,350.742l-9.41-38.91L 87.457,391.090L 96.867,430l 92.277-22.319c 15.029-3.636, 30.165,5.611, 33.804,20.654
	l 88.692-21.453c-3.639-15.043, 5.596-30.185, 20.627-33.82L 424.543,350.742z" data-tags="trash-can-7" />
<glyph unicode="&#xe064;" d="M 77.017,331.921L 77.017,18 l 224.259,0 c-0.698,0.663-1.392,1.335-2.075,2.019
	c-37.591,37.591-41.172,95.154-13.183,136.485L 286.018,269.538 c0,8.291, 6.716,15.012, 15,15.012s 15-6.721, 15-15.012l0-83.317 
	c 18.158,12.040, 39.495,18.241, 61.667,17.782L 377.685,331.921 L 77.017,331.921 z M 168.684,79.385c0-8.291-6.716-15.012-15-15.012s-15,6.721-15,15.012
	L 138.684,269.538 c0,8.291, 6.716,15.012, 15,15.012s 15-6.721, 15-15.012L 168.684,79.385 z M 242.351,79.385c0-8.291-6.716-15.012-15-15.012
	s-15,6.721-15,15.012L 212.351,269.538 c0,8.291, 6.716,15.012, 15,15.012s 15-6.721, 15-15.012L 242.351,79.385 z M 395.913,361.945L 58.788,361.945 L 58.788,401.978 l 94.938,0 
	c 15.465,0, 28,12.546, 28,28.022l 91.25,0 c0-15.477, 12.536-28.022, 28-28.022l 94.938,0 L 395.914,361.945 z M 375.42,174.028
	c-42.961,0-77.792-34.827-77.792-77.792c0-42.961, 34.831-77.788, 77.792-77.788c 42.963,0, 77.792,34.827, 77.792,77.788
	C 453.212,139.201, 418.383,174.028, 375.42,174.028z M 404.923,49.961l-29.124,29.122l-29.124-29.124l-15.643,15.651l 29.118,29.122
	l-29.122,29.119l 15.651,15.642l 29.117-29.111l 29.111,29.115l 15.655-15.645l-29.117-29.12l 29.122-29.115L 404.923,49.961z" data-tags="trash-can-6" />
<glyph unicode="&#xe065;" d="M 77.017,331.921L 77.017,18 l 224.259,0 c-0.698,0.663-1.392,1.335-2.075,2.019
	c-37.591,37.591-41.172,95.154-13.183,136.485L 286.018,269.538 c0,8.291, 6.716,15.012, 15,15.012s 15-6.721, 15-15.012l0-83.317 
	c 18.158,12.040, 39.495,18.241, 61.667,17.782L 377.685,331.921 L 77.017,331.921 z M 168.684,79.385c0-8.291-6.716-15.012-15-15.012s-15,6.721-15,15.012
	L 138.684,269.538 c0,8.291, 6.716,15.012, 15,15.012s 15-6.721, 15-15.012L 168.684,79.385 z M 242.351,79.385c0-8.291-6.716-15.012-15-15.012
	s-15,6.721-15,15.012L 212.351,269.538 c0,8.291, 6.716,15.012, 15,15.012s 15-6.721, 15-15.012L 242.351,79.385 z M 395.913,361.945L 58.788,361.945 L 58.788,401.978 l 94.938,0 
	c 15.465,0, 28,12.546, 28,28.022l 91.25,0 c0-15.477, 12.536-28.022, 28-28.022l 94.938,0 L 395.914,361.945 z M 375.42,174.030
	c-42.963,0-77.792-34.829-77.792-77.791c0-42.963, 34.829-77.792, 77.792-77.792s 77.792,34.829, 77.792,77.792
	C 453.212,139.201, 418.383,174.030, 375.42,174.030z M 362.185,54.338L 325.433,91.1l 15.648,15.653l 21.104-21.109l 48.721,48.721
	l 15.656-15.646L 362.185,54.338z" data-tags="trash-can-5" />
<glyph unicode="&#xe066;" d="M 375.421,174.030c-42.963,0-77.793-34.828-77.793-77.791c0-42.964, 34.83-77.791, 77.793-77.791
	s 77.791,34.827, 77.791,77.791C 453.212,139.202, 418.384,174.030, 375.421,174.030z M 423.229,82.104l-93.352,0 l0,26.005 l 93.352,0 L 423.229,82.104 z
	 M 299.2,20.019c-37.591,37.591-41.172,95.154-13.183,136.485L 286.017,269.538 c0,8.291, 6.716,15.012, 15,15.012s 15-6.721, 15-15.012l0-83.317 
	c 18.158,12.040, 39.495,18.241, 61.667,17.782L 377.684,331.921 L 77.017,331.921 L 77.017,18 l 224.259,0 C 300.577,18.663, 299.884,19.335, 299.2,20.019z
	 M 168.684,79.385c0-8.291-6.716-15.012-15-15.012s-15,6.721-15,15.012L 138.684,269.538 c0,8.291, 6.716,15.012, 15,15.012s 15-6.721, 15-15.012
	L 168.684,79.385 z M 242.351,79.385c0-8.291-6.716-15.012-15-15.012s-15,6.721-15,15.012L 212.351,269.538 c0,8.291, 6.716,15.012, 15,15.012
	s 15-6.721, 15-15.012L 242.351,79.385 z M 395.913,361.945L 58.788,361.945 L 58.788,401.978 l 94.938,0 c 15.465,0, 28,12.546, 28,28.022l 91.25,0 
	c0-15.477, 12.536-28.022, 28-28.022l 94.938,0 L 395.914,361.945 z" data-tags="trash-can-4" />
<glyph unicode="&#xe067;" d="M 375.421,174.030c-42.963,0-77.793-34.828-77.793-77.791c0-42.964, 34.83-77.791, 77.793-77.791
	s 77.791,34.827, 77.791,77.791C 453.212,139.202, 418.384,174.030, 375.421,174.030z M 423.229,82.104l-33.673,0 l0-33.673 l-26.006,0 l0,33.673 
	l-33.673,0 l0,26.005 l 33.673,0 l0,33.672 l 26.006,0 l0-33.672 l 33.673,0 L 423.229,82.104 z M 299.2,20.019c-37.591,37.591-41.172,95.154-13.183,136.485
	L 286.017,269.538 c0,8.291, 6.716,15.012, 15,15.012s 15-6.721, 15-15.012l0-83.317 c 18.158,12.040, 39.495,18.241, 61.667,17.782L 377.684,331.921 L 77.017,331.921 L 77.017,18 
	l 224.259,0 C 300.577,18.663, 299.884,19.335, 299.2,20.019z M 168.684,79.385c0-8.291-6.716-15.012-15-15.012s-15,6.721-15,15.012
	L 138.684,269.538 c0,8.291, 6.716,15.012, 15,15.012s 15-6.721, 15-15.012L 168.684,79.385 z M 242.351,79.385c0-8.291-6.716-15.012-15-15.012
	s-15,6.721-15,15.012L 212.351,269.538 c0,8.291, 6.716,15.012, 15,15.012s 15-6.721, 15-15.012L 242.351,79.385 z M 395.913,361.945L 58.788,361.945 L 58.788,401.978 l 94.938,0 
	c 15.465,0, 28,12.546, 28,28.022l 91.25,0 c0-15.477, 12.536-28.022, 28-28.022l 94.938,0 L 395.914,361.945 z" data-tags="trash-can-3" />
<glyph unicode="&#xe068;" d="M 210.333,285.55c0,8.29-6.716,15.012-15,15.012s-15-6.722-15-15.012l0-182.153 
	c0-8.291, 6.716-15.013, 15-15.013s 15,6.722, 15,15.013L 210.333,285.55 z M 271,285.55c0,8.29-6.716,15.012-15,15.012s-15-6.722-15-15.012
	l0-182.153 c0-8.291, 6.716-15.013, 15-15.013s 15,6.722, 15,15.013L 271,285.55 z M 331.667,285.55c0,8.29-6.716,15.012-15,15.012
	s-15-6.722-15-15.012l0-182.153 c0-8.291, 6.716-15.013, 15-15.013s 15,6.722, 15,15.013L 331.667,285.55 z M 371.334,55.024L 140.666,55.024 L 140.666,333.921 l-35,0 L 105.666,20 
	l 300.668,0 L 406.334,333.921 l-35,0 L 371.334,55.024 z M 329.625,403.978c-15.464,0-28,12.546-28,28.022l-91.25,0 c0-15.477-12.535-28.022-28-28.022L 87.438,403.978 
	l0-40.032 l 337.125,0 L 424.563,403.978 L 329.625,403.978 z" data-tags="trash-can-2" />
<glyph unicode="&#xe069;" d="M 424.562,401.978l0-40.032 L 87.438,361.946 L 87.438,401.978 l 94.938,0 c 15.464,0, 28,12.546, 28,28.022l 91.25,0 
	c0-15.477, 12.536-28.022, 28-28.022L 424.562,401.978 z M 406.334,331.921L 406.334,18 L 105.666,18 L 105.666,331.921 L 406.334,331.921 z M 197.333,269.538
	c0,8.291-6.716,15.012-15,15.012s-15-6.721-15-15.012l0-190.153 c0-8.291, 6.716-15.012, 15-15.012s 15,6.721, 15,15.012L 197.333,269.538 z
	 M 271,269.538c0,8.291-6.716,15.012-15,15.012s-15-6.721-15-15.012l0-190.153 c0-8.291, 6.716-15.012, 15-15.012s 15,6.721, 15,15.012
	L 271,269.538 z M 344.667,269.538c0,8.291-6.716,15.012-15,15.012s-15-6.721-15-15.012l0-190.153 c0-8.291, 6.716-15.012, 15-15.012
	s 15,6.721, 15,15.012L 344.667,269.538 z" data-tags="trash-can-1" />
<glyph unicode="&#xe06a;" d="M 288.47,341.288l-71.834,0 c-25.808,50.898-78.406,83.086-141.211,79.398l0-28.903 

	c 44.355,3.151, 85.179-15.298, 104.866-50.495l-32.552,0 l0-30.28 c-39.57,7.229-78.741-7.925-97.739-18.452l 11.824-27.695

	c 23.088,12.035, 49.17,24.051, 85.915,15.504l0-79.808 l 173.431-173.53L 462,167.857L 288.47,341.288z M 238.718,251.835

	c-16.513-16.51-44.599-7.964-49.444,14.559c 22.643-2.394, 37.643,14.939, 36.292,34.543

	C 247.214,295.145, 254.767,267.885, 238.718,251.835z" data-tags="tag-2" />
<glyph unicode="&#xe06b;" d="M 50.066,429.737l0-184.309 L 277.363,18l 184.57,184.572L 234.506,430L 50.066,429.737z M 169.301,312.633

	c-15.030-15.029-39.396-15.029-54.425,0c-15.029,15.029-15.029,39.396,0,54.425c 15.028,15.029, 39.395,15.029, 54.425,0

	C 184.331,352.029, 184.331,327.663, 169.301,312.633z" data-tags="tag-1" />
<glyph unicode="&#xe06c;" d="M 394.863,168.325c-37.078,0-67.137-30.059-67.137-67.137s 30.059-67.137, 67.137-67.137
	S 462,64.11, 462,101.188S 431.941,168.325, 394.863,168.325z M 420.324,61.251l-25.135,25.133l-25.135-25.137l-13.5,13.51
	l 25.129,25.133l-25.132,25.129l 13.508,13.502l 25.128-25.125l 25.124,25.127l 13.512-13.502l-25.128-25.131l 25.132-25.127
	L 420.324,61.251z M 394.865,198.315c 25.951,0, 49.557-10.23, 66.998-26.869l0,73.502 L 408.5,244.948 c0,0,0,41.832,0,57.832
	c0,23.166-13.729,36.049-25.167,48.666l-31.5,31.334c-14.333,14.498-30,31.168-51.639,31.168c-19.361,0-196.694,0-196.694,0l0-169 L 50,244.948 
	l0-188.902 l 258.889,0 c-7.117,13.496-11.152,28.857-11.152,45.145C 297.736,154.745, 341.309,198.315, 394.865,198.315z M 143.5,244.948
	L 143.5,373.655 c 54.958,0, 133.496,0, 147.678,0c 32.621,0, 18.664-58.377, 18.664-58.377s 57.731,11.822, 57.731-20.418
	c0-9.195,0-27.053,0-49.912L 143.5,244.948 z" data-tags="printer-4" />
<glyph unicode="&#xe06d;" d="M 394.865,198.315c 25.951,0, 49.557-10.23, 66.998-26.869l0,73.502 L 408.5,244.948 c0,0,0,41.832,0,57.832
	c0,23.166-13.729,36.049-25.167,48.666l-31.5,31.334c-14.333,14.498-30,31.168-51.639,31.168c-19.361,0-196.694,0-196.694,0l0-169 L 50,244.948 
	l0-188.902 l 258.889,0 c-7.117,13.496-11.152,28.857-11.152,45.145C 297.736,154.745, 341.309,198.315, 394.865,198.315z M 143.5,244.948
	L 143.5,373.655 c 54.958,0, 133.496,0, 147.678,0c 32.621,0, 18.664-58.377, 18.664-58.377s 57.731,11.822, 57.731-20.418
	c0-9.195,0-27.053,0-49.912L 143.5,244.948 z M 394.863,168.325c-37.078,0-67.137-30.059-67.137-67.137s 30.059-67.137, 67.137-67.137
	S 462,64.11, 462,101.188S 431.941,168.325, 394.863,168.325z M 383.441,65.026l-31.719,31.728l 13.505,13.508l 18.213-18.218
	l 42.048,42.048L 439,120.589L 383.441,65.026z" data-tags="printer-3" />
<glyph unicode="&#xe06e;" d="M 408.5,319.5l0,88 l-305,0 l0-88 L 50,319.5 l0-203 l 53.333,0 L 103.333,172 L 408.5,172 l0-55.5 L 462,116.5 l0,203 L 408.5,319.5 z M 368.5,319.5l-225,0 l0,48 l 225,0 
	L 368.5,319.5 z M 422.334,268.733c-6.682,0-12.1,5.418-12.1,12.101s 5.418,12.1, 12.1,12.1s 12.101-5.417, 12.101-12.1
	S 429.016,268.733, 422.334,268.733z M 367.833,40.5L 143.5,40.5 l0,97 l 224.333,0 L 367.833,40.5 z" data-tags="printer-2" />
<glyph unicode="&#xe06f;" d="M 408.5,342L 408.5,430 l-305,0 l0-88 L 50,342 l0-203 l 53.5,0 l0-121 c 188.036,0, 177.954,0, 198.694,0c 25.083,0, 36.833,15, 51.667,29
	c 11.656,11.001, 19.753,19.48, 31,32c 11.791,13.125, 23.639,25.333, 23.639,44c0,16,0,16,0,16L 462,139 L 462,342 L 408.5,342 z M 291.178,58.293
	c-14.182,0-92.72,0-147.678,0L 143.5,187 l 224.073,0 c0-22.86,0-40.717,0-49.913c0-32.24-57.731-20.417-57.731-20.417
	S 323.799,58.293, 291.178,58.293z M 143.5,390l 225,0 l0-48 l-225,0 L 143.5,390 z M 422.334,291.233c-6.682,0-12.1,5.418-12.1,12.101
	s 5.418,12.1, 12.1,12.1s 12.101-5.417, 12.101-12.1S 429.016,291.233, 422.334,291.233z" data-tags="printer-1" />
<glyph unicode="&#xe070;" d="M 363.68,191.561l-76.24,0 l0-76.238 l-58.877,0 l0,76.238 l-76.24,0 l0,58.877 l 76.24,0 l0,76.24 l 58.877,0 l0-76.24 l 76.24,0 L 363.68,191.561 z

	 M 462,224c0-113.771-92.229-206-206-206S 50,110.229, 50,224S 142.229,430, 256,430S 462,337.771, 462,224z M 422,224

	c0,91.755-74.258,166-166,166c-91.755,0-166-74.259-166-166c0-91.755, 74.258-166, 166-166C 347.755,58, 422,132.259, 422,224z" data-tags="plus-2" />
<glyph unicode="&#xe071;" d="M 462,270.472L 302.471,270.472L 302.471,430L 209.529,430L 209.529,270.472L 50,270.472L 50,177.53L 209.529,177.53L 209.529,18L 302.471,18L 302.471,177.53L 462,177.53 z" data-tags="plus-1" />
<glyph unicode="&#xe072;" d="M 347.54,400.899c-46.756,0-84.66-37.902-84.66-84.658c0-46.757, 37.904-84.659, 84.66-84.659
	s 84.658,37.902, 84.658,84.659C 432.198,362.997, 394.296,400.899, 347.54,400.899z M 399.569,300.857L 297.978,300.857 l0,28.301 l 101.592,0 L 399.57,300.857 z
	 M 232.88,316.241c0,59.775, 40.928,78.214, 42.41,113.759L 105.397,430 c 1.369-32.805, 32.293-42.523, 32.293-92.352l0-0.010 
	c0-64.726-57.889-68.699-57.889-160.639l 221.084,0 c0,13.869-1.332,25.731-3.584,36.117C 259.81,231.423, 232.88,270.165, 232.88,316.241z
	 M 187.208,288.516l-24.395,0 l0,91.303 l 24.395,0 L 187.208,288.516 z M 170.011,152l 40.664,0 l0-93.667 L 170.011,18L 170.011,152 z" data-tags="pin-4" />
<glyph unicode="&#xe073;" d="M 347.54,400.899c-46.756,0-84.66-37.902-84.66-84.658c0-46.757, 37.904-84.659, 84.66-84.659
	s 84.658,37.902, 84.658,84.659C 432.198,362.997, 394.296,400.899, 347.54,400.899z M 399.569,300.857l-36.645,0 l0-36.645 l-28.303,0 l0,36.645 
	l-36.645,0 l0,28.301 l 36.645,0 l0,36.645 l 28.303,0 l0-36.645 l 36.645,0 L 399.569,300.857 z M 232.88,316.241c0,59.775, 40.928,78.214, 42.41,113.759L 105.397,430 
	c 1.369-32.805, 32.293-42.523, 32.293-92.352l0-0.010 c0-64.726-57.889-68.699-57.889-160.639l 221.084,0 c0,13.869-1.332,25.731-3.584,36.117
	C 259.81,231.423, 232.88,270.165, 232.88,316.241z M 187.208,288.516l-24.395,0 l0,91.303 l 24.395,0 L 187.208,288.516 z M 170.011,152l 40.664,0 l0-93.667 
	L 170.011,18L 170.011,152 z" data-tags="pin-3" />
<glyph unicode="&#xe074;" d="M 276.332,152l0-93.667 L 235.667,18L 235.667,152 L 276.332,152 z M 295.227,400c-8.287-14.458-16.573-33.71-16.573-62.352
	c0-66, 44.222-81.726, 54.957-130.648L 178.37,207 c 10.687,48.968, 54.978,64.5, 54.978,130.648c0,28.768-8.253,47.967-16.529,62.352L 295.227,400 
	 M 340.947,430L 171.054,430 c 1.369-32.805, 32.294-42.523, 32.294-92.352l0-0.010 c0-64.725-57.89-68.699-57.89-160.638l 221.084,0 
	c0,91.639-57.889,96.11-57.889,160.648C 308.653,387.084, 339.592,397.494, 340.947,430z" data-tags="pin-2" />
<glyph unicode="&#xe075;" d="M 276.332,152l0-93.667 L 235.667,18L 235.667,152 L 276.332,152 z M 145.458,177l 221.084,0 c0,91.639-57.889,96.11-57.889,160.648
	c0,49.437, 30.938,59.846, 32.294,92.352L 171.054,430 c 1.369-32.805, 32.294-42.523, 32.294-92.352l0-0.010 
	C 203.348,272.913, 145.458,268.939, 145.458,177z M 228.47,379.818l 24.395,0 l0-91.303 L 228.47,288.515 L 228.47,379.818 z" data-tags="pin-1" />
<glyph unicode="&#xe076;" d="M 377.194,231.761L 202.636,57.205L 50,19.333l 40.695,150.129l 174.398,174.399l 28.352-28.351

	l-166.424-166.43l-10.901-45.092l 20.288-20.287l 46.166,10.148l 166.267,166.264L 377.194,231.761z M 405.528,260.094L 462,316.569

	L 349.899,428.667l-56.472-56.473L 405.528,260.094z" data-tags="pencil-6" />
<glyph unicode="&#xe077;" d="M 74.686,139.314L 50,19.051l 122.365,22.584L 379.52,248.789l-97.68,97.68L 74.686,139.314z

	 M 303.088,274.968l-181.891-181.89l-21.213,21.213l 181.891,181.89L 303.088,274.968z M 462,331.269l-52.662-52.662l-97.682,97.68

	l 52.662,52.663L 462,331.269z" data-tags="pencil-2" />
<glyph unicode="&#xe078;" d="M 218.353,267.782c 24.18,105.296, 144.596,126.802, 144.596,126.802L 362.949,430 l 71.812-71.694l-71.812-71.697
	l0,35.417 C 362.948,322.025, 269.831,322.901, 218.353,267.782z M 364.815,246.079c0-39.282,0-77.192,0-89.464
	c0-56.843-70.178-34.068-70.178-34.068s 21.484-68.525-31.521-68.525c-28.873,0-43.283,0-149.855,0L 113.261,353.003 l 116.025,0 
	c 11.57,13.304, 25.258,25.368, 40.936,36.022L 77.239,389.025 L 77.239,18 l 186.426,0 c 61.387,0, 137.172,80.211, 137.172,135.506L 400.837,282.043 
	C 384.229,265.463, 394.101,275.317, 364.815,246.079z M 326.401,161.443L 151.673,161.443 l0,27.018 l 174.729,0 L 326.402,161.443 z M 326.372,220.355L 151.673,220.355 
	l0,27.016 l 174.699,0 L 326.372,220.355 z" data-tags="note-16" />
<glyph unicode="&#xe079;" d="M 279.037,329.364L 173.511,223.838c-24.496-24.497-64.357-24.497-88.855,0
	c-24.496,24.498-24.496,64.359,0,88.854L 188.31,416.346c 18.205,18.205, 47.828,18.207, 66.033,0c 18.208-18.205, 18.208-47.829,0-66.036
	l-92.029-92.028c-11.855-11.855-31.145-11.855-43.002,0c-11.855,11.854-11.854,31.145, 0.002,43.001l 74.287,74.287l 15.488-15.487
	l-74.287-74.289c-3.316-3.315-3.316-8.707,0-12.024c 3.314-3.312, 8.707-3.312, 12.023,0l 92.029,92.032
	c 9.664,9.665, 9.664,25.391,0,35.058c-9.666,9.665-25.393,9.665-35.057-0.002L 100.146,297.203c-15.957-15.955-15.959-41.919,0-57.876
	c 15.957-15.957, 41.92-15.957, 57.877,0l 105.526,105.526L 279.037,329.364z M 369.080,254.058L 247.724,254.058 l-27.803-27.804L 369.080,226.254 L 369.080,254.058 z
	 M 369.111,193.43L 189.291,193.43 l0-27.804 l 179.821,0 L 369.112,193.43 z M 280.471,286.805l 88.609,0 l0,27.804 l-60.805,0 L 280.471,286.805z M 297.344,399.842
	c 1.152-5.367, 1.764-10.891, 1.764-16.513c0-7.045-0.943-13.942-2.742-20.56l 112.279,0 c0,0,0-172.686,0-202.111
	c0-58.501-72.225-35.063-72.225-35.063s 22.113-70.522-32.438-70.522c-29.715,0-44.547,0-154.225,0L 149.757,176.649 
	c-6.709-1.497-13.627-2.293-20.674-2.293c-5.559,0-11.035,0.506-16.398,1.443L 112.685,18 l 191.862,0 c 63.176,0, 141.17,82.55, 141.17,139.457
	L 445.717,399.842 L 297.344,399.842 z" data-tags="note-15" />
<glyph unicode="&#xe07a;" d="M 344.319,160.215L 167.238,160.215 l0,26.612 l 177.081,0 L 344.319,160.215 z M 344.319,218.169L 167.238,218.169 l0,26.612 l 177.081,0 L 344.319,218.169 
	z M 340.371,430c-30.461,0-55.156-24.695-55.156-55.157c0-12.078, 3.894-23.241, 10.479-32.326l-60.596-60.595l 39.668,0.007
	l 42.73,42.729c 6.971-3.183, 14.712-4.97, 22.875-4.97c 30.462,0, 55.155,24.694, 55.155,55.154C 395.526,405.305, 370.833,430, 340.371,430z
	 M 340.371,386.736c-9.488,0-17.181,5.416-17.181,12.096c0,6.681, 7.692,12.096, 17.181,12.096s 17.18-5.415, 17.18-12.096
	C 357.551,392.152, 349.859,386.736, 340.371,386.736z M 383.332,301.323c0-51.5,0-127.424,0-145.747c0-56.417-69.65-33.814-69.65-33.814
	s 21.325-68.011-31.282-68.011c-28.657,0-47.96,0-153.731,0L 128.669,350.488 l 130.056,0 c-3.394,11.384-4.418,23.412-2.76,35.752L 92.916,386.24 L 92.916,18 
	l 190.027,0 c 60.925,0, 136.141,79.608, 136.141,134.489L 419.084,342.287 C 411.931,325.059, 399.279,310.679, 383.332,301.323z" data-tags="note-14" />
<glyph unicode="&#xe07b;" d="M 179,177l-51.332,42l-51.335-42L 76.333,430 L 179,430 L 179,177 z M 353.012,207.285L 209,207.285 l0-30 l 144.012,0 L 353.012,207.285 z
	 M 352.979,272.702L 209,272.702 l0-30 l 143.979,0 L 352.979,272.702 z M 209,430l0-40 l 186.667,0 c0,0,0-186.325,0-218.075c0-63.121-77.928-37.833-77.928-37.833
	s 23.859-76.092-35-76.092c-32.062,0-48.064,0-166.406,0L 116.333,170.966 l-40-32.728L 76.333,18 l 207.016,0 c 68.165,0, 152.318,89.069, 152.318,150.472L 435.667,430 
	L 209,430 z M 209,308.035l 143.979,0 l0,30 L 209,338.035 L 209,308.035 z" data-tags="note-13" />
<glyph unicode="&#xe07c;" d="M 369.162,430.333c-45.725,0-82.794-37.066-82.794-82.791s 37.069-82.791, 82.794-82.791
	c 45.723,0, 82.79,37.066, 82.79,82.791S 414.885,430.333, 369.162,430.333z M 420.043,332.499l-99.352,0 l0,27.676 l 99.352,0 L 420.043,332.499 z
	 M 142.703,206.952l 194.023,0 l0-30 L 142.703,176.952 L 142.703,206.952 z M 328.256,242.368L 142.703,242.368 l0,30 l 142.373,0 
	C 296.911,259.161, 311.588,248.847, 328.256,242.368z M 419.382,246.489l0-78.352 c0-61.402-84.153-150.471-152.318-150.471L 60.048,17.666 l0,412 
	l 231.806,0 c-0.824-0.777-1.643-1.564-2.447-2.369c-10.931-10.93-19.334-23.711-24.934-37.631L 100.048,389.666 l0-332 
	c 118.342,0, 134.344,0, 166.406,0c 58.859,0, 35,76.092, 35,76.092s 77.928-25.289, 77.928,37.832c0,9.807,0,34.365,0,63.621
	C 393.439,236.468, 406.958,240.302, 419.382,246.489z M 142.703,337.702l 114.094,0 c 0.891-10.365, 3.182-20.439, 6.785-30L 142.703,307.702 L 142.703,337.702 z" data-tags="note-12" />
<glyph unicode="&#xe07d;" d="M 369.162,430.333c-45.725,0-82.794-37.066-82.794-82.791s 37.069-82.791, 82.794-82.791
	c 45.723,0, 82.79,37.066, 82.79,82.791S 414.885,430.333, 369.162,430.333z M 420.043,332.499l-35.837,0 l0-35.838 l-27.678,0 l0,35.838 l-35.837,0 
	l0,27.676 l 35.837,0 L 356.528,396.011 l 27.678,0 l0-35.836 l 35.837,0 L 420.043,332.499 z M 142.703,206.952l 194.023,0 l0-30 L 142.703,176.952 L 142.703,206.952 z M 328.256,242.368L 142.703,242.368 l0,30 
	l 142.373,0 C 296.911,259.161, 311.588,248.847, 328.256,242.368z M 419.382,246.489l0-78.352 c0-61.402-84.153-150.471-152.318-150.471
	L 60.048,17.666 l0,412 l 231.806,0 c-0.824-0.777-1.643-1.564-2.447-2.369c-10.931-10.93-19.334-23.711-24.934-37.631L 100.048,389.666 l0-332 
	c 118.342,0, 134.344,0, 166.406,0c 58.859,0, 35,76.092, 35,76.092s 77.928-25.289, 77.928,37.832c0,9.807,0,34.365,0,63.621
	C 393.439,236.468, 406.958,240.302, 419.382,246.489z M 142.703,337.702l 114.094,0 c 0.891-10.365, 3.182-20.439, 6.785-30L 142.703,307.702 L 142.703,337.702 z" data-tags="note-11" />
<glyph unicode="&#xe07e;" d="M 116.333,58L 116.333,390 l 279.334,0 c0,0,0-186.325,0-218.075c0-63.121-77.928-37.833-77.928-37.833
	s 23.859-76.092-35-76.092C 250.677,58, 234.675,58, 116.333,58z M 435.667,168.472L 435.667,430 L 76.333,430 l0-412 l 207.016,0 
	C 351.514,18, 435.667,107.069, 435.667,168.472z M 260.182,119.242c-12.282,0-22.238,9.957-22.238,22.239
	c0,12.28, 9.956,22.236, 22.238,22.236c 12.28,0, 22.236-9.956, 22.236-22.236C 282.418,129.199, 272.462,119.242, 260.182,119.242z
	 M 289.565,301.33c-1.882-14.99-15.688-87.968-20.253-111.949c-0.842-4.434-4.719-7.653-9.234-7.653l-0.181,0 
	c-4.675,0-8.669,3.319-9.54,7.91c-4.623,24.343-18.409,97.384-20.26,112.136c-2.229,17.765, 11.636,33.474, 29.536,33.474
	C 277.774,335.247, 291.823,319.328, 289.565,301.33z" data-tags="note-10" />
<glyph unicode="&#xe07f;" d="M 116.333,58L 116.333,390 l 279.334,0 c0,0,0-186.325,0-218.075c0-63.121-77.928-37.833-77.928-37.833
	s 23.859-76.092-35-76.092C 250.677,58, 234.675,58, 116.333,58z M 435.667,168.472L 435.667,430 L 76.333,430 l0-412 l 207.016,0 
	C 351.514,18, 435.667,107.069, 435.667,168.472z M 249.842,127.85c-24.656-8.666-44.981,1.271-40.903,24.948
	c 4.077,23.684, 27.474,74.387, 30.812,83.972c 3.335,9.588-3.061,12.217-9.917,8.317c-3.954-2.282-9.83-6.854-14.876-11.297
	c-1.397,2.815-3.366,6.035-4.843,9.118c 8.232,8.25, 21.993,19.31, 38.285,23.317c 19.463,4.805, 51.995-2.875, 38.013-40.079
	c-9.984-26.517-17.045-44.816-21.495-58.443c-4.446-13.632, 0.836-16.49, 8.621-11.179c 6.081,4.152, 12.562,9.8, 17.311,14.182
	c 2.197-3.571, 2.9-4.71, 5.073-8.813C 287.678,153.442, 266.111,133.666, 249.842,127.85z M 300.926,291.882
	c-11.183-9.519-27.759-9.312-37.031,0.466c-9.271,9.772-7.724,25.411, 3.456,34.933c 11.183,9.518, 27.761,9.312, 37.031-0.46
	C 313.652,317.045, 312.106,301.404, 300.926,291.882z" data-tags="note-9" />
<glyph unicode="&#xe080;" d="M 116.333,58L 116.333,390 l 279.334,0 c0,0,0-186.325,0-218.075c0-63.121-77.928-37.833-77.928-37.833
	s 23.859-76.092-35-76.092C 250.677,58, 234.675,58, 116.333,58z M 435.667,168.472L 435.667,430 L 76.333,430 l0-412 l 207.016,0 
	C 351.514,18, 435.667,107.069, 435.667,168.472z M 239.748,145.534c 44.939,80.589, 76.147,122.007, 118.757,159.192l-5.537,12.739
	c-51.672-32.147-79.47-56.369-121.539-104.109c-22.377,15.952-35.005,23.281-54.914,32.916l-17.020-15.735
	C 193.535,198.985, 212.033,178.177, 239.748,145.534z" data-tags="note-8" />
<glyph unicode="&#xe081;" d="M 196.231,183.388l-72.128,0 l0,27.31 l 72.128,0 L 196.231,183.388 z M 462,364.144L 315.839,218.055l-60.76,60.726
	L 401.241,424.872L 462,364.144z M 348.278,205.574c0-17.83,0-31.954,0-38.671c0-58.959-72.79-35.338-72.79-35.338
	s 22.287-71.074-32.691-71.074c-29.948,0-44.896,0-155.434,0L 87.363,370.6 l 214.654,0 l 37.381,37.362L 50,407.962 l0-384.834 l 193.366,0 
	c 63.67,0, 142.274,83.196, 142.274,140.55l0,79.241 L 348.278,205.574z M 238.413,260.396l 58.966-58.932l-78.021-17.661L 238.413,260.396z" data-tags="note-7" />
<glyph unicode="&#xe082;" d="M 116.333,58L 116.333,390 l 279.334,0 c0,0,0-186.325,0-218.075c0-63.121-77.928-37.833-77.928-37.833
	s 23.859-76.092-35-76.092C 250.677,58, 234.675,58, 116.333,58z M 435.667,168.472L 435.667,430 L 76.333,430 l0-412 l 207.016,0 
	C 351.514,18, 435.667,107.069, 435.667,168.472z" data-tags="note-6" />
<glyph unicode="&#xe083;" d="M 353.012,177.285L 215.527,177.285 l0,30 l 137.484,0 L 353.011,177.285 z M 352.979,242.702L 215.527,242.702 l0,30 l 137.451,0 L 352.978,242.702 z
	 M 352.979,308.035L 215.527,308.035 l0,30 l 137.451,0 L 352.978,308.035 z M 116.333,58L 116.333,390 l 279.334,0 c0,0,0-186.325,0-218.075
	c0-63.121-77.928-37.833-77.928-37.833s 23.859-76.092-35-76.092C 250.677,58, 234.675,58, 116.333,58z M 435.667,168.472L 435.667,430 L 76.333,430 
	l0-412 l 207.016,0 C 351.514,18, 435.667,107.069, 435.667,168.472z M 173.193,340.36c-9.568,0-17.325-7.757-17.325-17.325
	c0-9.567, 7.757-17.325, 17.325-17.325c 9.567,0, 17.324,7.758, 17.324,17.325C 190.518,332.604, 182.761,340.36, 173.193,340.36z
	 M 173.193,274.36c-9.568,0-17.325-7.758-17.325-17.325c0-9.568, 7.757-17.325, 17.325-17.325c 9.567,0, 17.324,7.757, 17.324,17.325
	C 190.518,266.603, 182.761,274.36, 173.193,274.36z M 173.193,209.769c-9.568,0-17.325-7.758-17.325-17.325
	c0-9.568, 7.757-17.325, 17.325-17.325c 9.567,0, 17.324,7.757, 17.324,17.325C 190.518,202.011, 182.761,209.769, 173.193,209.769z" data-tags="note-5" />
<glyph unicode="&#xe084;" d="M 353.012,177.285L 158.988,177.285 l0,30 l 194.023,0 L 353.011,177.285 z M 352.979,242.702l-193.99,0 l0,30 l 193.99,0 L 352.979,242.702 z
	 M 352.979,308.035l-193.99,0 l0,30 l 193.99,0 L 352.979,308.035 z M 116.333,58L 116.333,390 l 279.334,0 c0,0,0-186.325,0-218.075
	c0-63.121-77.928-37.833-77.928-37.833s 23.859-76.092-35-76.092C 250.677,58, 234.675,58, 116.333,58z M 435.667,168.472L 435.667,430 L 76.333,430 
	l0-412 l 207.016,0 C 351.514,18, 435.667,107.069, 435.667,168.472z" data-tags="note-4" />
<glyph unicode="&#xe085;" d="M 210.513,262.222l 142.51,0 l0-30 l-142.51,0 L 210.513,262.222 z M 353.022,327.555l-142.51,0 l0-30 l 142.51,0 L 353.022,327.555 z
	 M 210.513,166.805l 142.543,0 l0,30 L 210.513,196.805 L 210.513,166.805 z M 435.667,430l0-261.527 C 435.667,107.070, 351.514,18, 283.349,18L 76.333,18 L 76.333,430 L 435.667,430 z
	 M 141.769,138.784c0,10.897-8.834,19.732-19.731,19.732s-19.732-8.835-19.732-19.732s 8.835-19.731, 19.732-19.731
	S 141.769,127.887, 141.769,138.784z M 141.769,306.822c0,10.897-8.834,19.732-19.731,19.732s-19.732-8.835-19.732-19.732
	s 8.835-19.731, 19.732-19.731S 141.769,295.925, 141.769,306.822z M 395.667,390l-228.14,0 l0-332 c0,0, 111.159,0, 115.212,0
	c 58.859,0, 35,76.092, 35,76.092s 77.928-25.287, 77.928,37.834C 395.667,177.557, 395.667,390, 395.667,390z" data-tags="note-3" />
<glyph unicode="&#xe086;" d="M 141.881,366.026L 141.881,411.755 c0,10.035, 8.135,18.17, 18.171,18.17c 10.034,0, 18.17-8.135, 18.17-18.17l0-45.729 
	c0-10.035-8.136-18.17-18.17-18.17C 150.016,347.856, 141.881,355.991, 141.881,366.026z M 352.886,347.772
	c 10.035,0, 18.17,8.137, 18.17,18.172L 371.056,411.673 c0,10.033-8.135,18.17-18.17,18.17s-18.171-8.137-18.171-18.17l0-45.729 
	C 334.715,355.909, 342.851,347.772, 352.886,347.772z M 435.667,385.224l0-225.666 c0-61.402-73.335-141.482-141.5-141.482L 76.333,18.076 L 76.333,385.224 
	l 43.585,0 l0-18.533 c0-22.129, 18.004-40.133, 40.134-40.133c 22.129,0, 40.133,18.004, 40.133,40.133L 200.185,385.224 l 112.567,0 l0-18.615 
	c0-22.131, 18.004-40.135, 40.134-40.135c 22.129,0, 40.133,18.004, 40.133,40.135L 393.019,385.224 L 435.667,385.224 z M 395.667,288.694L 116.333,288.694 l0-230.619 
	c0,0, 165.561,0, 177.225,0c 48.609,0, 32,66.103, 32,66.103s 70.109-17.12, 70.109,33.833
	C 395.667,168.978, 395.667,288.694, 395.667,288.694z" data-tags="note-2" />
<glyph unicode="&#xe087;" d="M 141.881,366.026L 141.881,411.755 c0,10.035, 8.135,18.17, 18.171,18.17c 10.034,0, 18.17-8.135, 18.17-18.17l0-45.729 
	c0-10.035-8.136-18.17-18.17-18.17C 150.016,347.856, 141.881,355.991, 141.881,366.026z M 352.886,347.772
	c 10.035,0, 18.17,8.137, 18.17,18.172L 371.056,411.673 c0,10.033-8.135,18.17-18.17,18.17s-18.171-8.137-18.171-18.17l0-45.729 
	C 334.715,355.909, 342.851,347.772, 352.886,347.772z M 156.988,217.64l 197.99,0 l0,29.998 l-197.99,0 L 156.988,217.64 z M 156.988,94.89l 124.595,0 l0,30 
	L 156.988,124.89 L 156.988,94.89 z M 354.979,186.306l-197.99,0 l0-30 l 197.99,0 L 354.979,186.306 z M 435.667,385.224l0-225.666 c0-61.402-73.335-141.482-141.5-141.482
	L 76.333,18.076 L 76.333,385.224 l 43.585,0 l0-18.533 c0-22.129, 18.004-40.133, 40.134-40.133c 22.129,0, 40.133,18.004, 40.133,40.133L 200.185,385.224 l 112.567,0 l0-18.615 
	c0-22.131, 18.004-40.135, 40.134-40.135c 22.129,0, 40.133,18.004, 40.133,40.135L 393.019,385.224 L 435.667,385.224 z M 395.667,288.694L 116.333,288.694 l0-230.619 
	c0,0, 165.561,0, 177.225,0c 48.609,0, 32,66.103, 32,66.103s 70.109-17.12, 70.109,33.833
	C 395.667,168.978, 395.667,288.694, 395.667,288.694z" data-tags="note-1" />
<glyph unicode="&#xe088;" d="M 363.68,191.561L 152.322,191.561 l0,58.877 L 363.68,250.438 L 363.68,191.561 z M 462,224c0-113.771-92.229-206-206-206

	S 50,110.229, 50,224S 142.229,430, 256,430S 462,337.771, 462,224z M 422,224c0,91.755-74.258,166-166,166c-91.755,0-166-74.259-166-166

	c0-91.755, 74.258-166, 166-166C 347.755,58, 422,132.259, 422,224z" data-tags="minus-2" />
<glyph unicode="&#xe089;" d="M 50,270.471L 462,270.471L 462,177.53L 50,177.53z" data-tags="minus-1" />
<glyph unicode="&#xe08a;" d="M 92.055,18L 199.13,125.076c 26.831-18.386, 59.271-29.158, 94.184-29.158
	c 92.104,0, 167.041,74.935, 167.041,167.041S 385.419,430, 293.314,430c-92.107,0-167.043-74.935-167.043-167.041
	c0-36.601, 11.844-70.484, 31.885-98.037L 51.645,58.409L 92.055,18z M 293.314,144.903c-65.099,0-118.057,52.96-118.057,118.057
	S 228.215,381.015, 293.314,381.015c 65.096,0, 118.055-52.96, 118.055-118.056C 411.368,197.863, 358.409,144.903, 293.314,144.903z" data-tags="magnifier-1r" />
<glyph unicode="&#xe08b;" d="M 353.844,164.922c 20.041,27.553, 31.885,61.437, 31.885,98.037C 385.729,355.066, 310.793,430, 218.686,430
		C 126.58,430, 51.645,355.066, 51.645,262.959c0-2.5, 0.065-4.985, 0.175-7.459l 49.054,0 c-0.155,2.468-0.243,4.953-0.243,7.459
		c0,65.096, 52.959,118.056, 118.055,118.056c 65.099,0, 118.057-52.959, 118.057-118.056c0-52.65-34.646-97.354-82.335-112.527
		l-32.161-54.474c 33.556,0.706, 64.707,11.359, 90.623,29.118L 419.945,18l 40.41,40.409L 353.844,164.922zM 67.878,224L 144.034,94.44L 144.034,43.978L 179.509,18L 179.509,94.44L 256,224 	z" data-tags="magnifier-1f" />
<glyph unicode="&#xe08c;" d="M 460.355,58.41L 353.844,164.922c 20.041,27.553, 31.885,61.437, 31.885,98.037

	C 385.729,355.066, 310.793,430, 218.686,430C 126.58,430, 51.645,355.066, 51.645,262.959c0-92.106, 74.936-167.041, 167.041-167.041

	c 34.912,0, 67.352,10.773, 94.184,29.158L 419.945,18L 460.355,58.41z M 100.631,262.959c0,65.096, 52.959,118.056, 118.055,118.056

	c 65.098,0, 118.057-52.959, 118.057-118.056c0-65.096-52.959-118.056-118.057-118.056C 153.59,144.903, 100.631,197.863, 100.631,262.959

	z" data-tags="magnifier-1" />
<glyph unicode="&#xe08d;" d="M 271.541,252.299l-32.338-32.338l 190.461-190.459L 462,61.84L 271.541,252.299z M 296.781,181.689
	l-38.271,38.271l 13.031,13.031l 38.272-38.273L 296.781,181.689z M 334.955,88.809L 50,88.809 L 50,418.498 l 372.142,0 L 422.142,137.1 l-36.13,36.13L 386.012,339.914 
	L 86.13,339.914 L 86.13,124.94 l 212.694,0 L 334.955,88.809z M 297.298,273.608c 14.427-4.406, 25.72-15.698, 30.126-30.126
	c 4.406,14.429, 15.698,25.72, 30.124,30.126c-14.426,4.407-25.718,15.697-30.125,30.125
	C 323.018,289.307, 311.725,278.014, 297.298,273.608z M 187.246,229.54c-5.843-19.134-20.819-34.107-39.953-39.952
	c 19.134-5.845, 34.11-20.819, 39.953-39.953c 5.844,19.134, 20.82,34.107, 39.954,39.953C 208.066,195.433, 193.090,210.406, 187.246,229.54
	L 187.246,229.54z M 220.786,273.608c 10.205-3.117, 18.192-11.104, 21.31-21.31c 3.115,10.206, 11.102,18.192, 21.309,21.31
	c-10.207,3.117-18.193,11.103-21.309,21.311C 238.979,284.712, 230.991,276.726, 220.786,273.608z" data-tags="magic-6" />
<glyph unicode="&#xe08e;" d="M 271.745,262.162l-32.303-32.304l 190.256-190.254L 462,71.907L 271.745,262.162z M 296.959,191.628
	l-38.23,38.23l 13.017,13.018l 38.231-38.232L 296.959,191.628z M 329.221,104.718L 50,104.718 L 50,408.396 l 123.177,0 l 30.203-30.070
	c 8.355-8.319, 19.666-12.99, 31.458-12.99L 430.66,365.336 l0-226.726 l-36.956,36.957L 393.704,328.379 L 234.838,328.379 c-21.714,0-42.146,8.438-57.533,23.757
	l-19.388,19.303L 86.958,371.439 l0-229.764 l 205.307,0 L 329.221,104.718z M 304.476,283.448c 14.411-4.401, 25.691-15.681, 30.094-30.093
	c 4.401,14.413, 15.682,25.691, 30.092,30.093c-14.41,4.402-25.69,15.682-30.093,30.094
	C 330.167,299.131, 318.887,287.849, 304.476,283.448z M 187.541,239.428c-5.837-19.113-20.798-34.071-39.911-39.909
	c 19.113-5.838, 34.074-20.797, 39.911-39.91c 5.837,19.113, 20.797,34.071, 39.91,39.91C 208.338,205.356, 193.378,220.314, 187.541,239.428
	L 187.541,239.428z M 221.045,283.448c 10.193-3.113, 18.173-11.091, 21.286-21.286c 3.112,10.195, 11.090,18.173, 21.286,21.286
	c-10.196,3.114-18.174,11.092-21.286,21.288C 239.218,294.541, 231.238,286.562, 221.045,283.448z" data-tags="magic-5" />
<glyph unicode="&#xe08f;" d="M 237.556,240.85l-32.346-32.346L 395.716,18l 32.344,32.346L 237.556,240.85z M 262.802,170.224
	l-38.281,38.28l 13.035,13.034l 38.281-38.282L 262.802,170.224z M 331.659,46.646L 83.94,46.646 L 83.94,430 l 218.195,0 l 93.852-93.745l0-218.428 
	l-37.219,37.219L 358.768,312.993 l-79.895,0 L 278.873,392.781 L 121.159,392.781 l0-308.916 L 294.44,83.865 L 331.659,46.646z M 280.011,238.928
	c 14.43-4.407, 25.725-15.701, 30.133-30.133c 4.408,14.433, 15.701,25.726, 30.131,30.133c-14.43,4.408-25.723,15.701-30.131,30.133
	C 305.735,254.63, 294.44,243.334, 280.011,238.928z M 187.626,187.039c-5.844-19.139-20.824-34.116-39.963-39.962
	c 19.139-5.846, 34.119-20.824, 39.963-39.963c 5.846,19.139, 20.824,34.116, 39.963,39.963C 208.45,152.923, 193.472,167.9, 187.626,187.039
	L 187.626,187.039z M 239.788,277.432c 10.207-3.118, 18.195-11.105, 21.314-21.314c 3.115,10.209, 11.104,18.196, 21.312,21.314
	c-10.209,3.118-18.197,11.105-21.312,21.315C 257.983,288.538, 249.995,280.55, 239.788,277.432z" data-tags="magic-4" />
<glyph unicode="&#xe090;" d="M 104.072,217.181c-7.803-25.546-27.796-45.537-53.341-53.341c 25.545-7.803, 45.538-27.796, 53.341-53.34
	c 7.803,25.544, 27.795,45.537, 53.341,53.34C 131.867,171.643, 111.875,191.635, 104.072,217.181L 104.072,217.181z M 241.979,318.681
	c-5.276-17.276-18.798-30.795-36.072-36.072c 17.274-5.277, 30.796-18.797, 36.072-36.072c 5.276,17.275, 18.797,30.795, 36.072,36.072
	C 260.776,287.885, 247.256,301.405, 241.979,318.681L 241.979,318.681z M 79.562,429.477C 75.237,415.318, 64.157,404.239, 50,399.914
	c 14.157-4.324, 25.237-15.406, 29.562-29.562c 4.324,14.157, 15.406,25.238, 29.563,29.562C 94.968,404.238, 83.886,415.318, 79.562,429.477
	L 79.562,429.477z M 50,307.467l 288.946-288.943l 43.868,43.868L 93.866,351.338L 50,307.467z M 149.971,266.931l-15.567-15.566
	L 78.3,307.469l 15.568,15.567L 149.971,266.931z M 462,360.833C 382.814,404, 248.699,381.447, 187.083,298.5
	c-12.164,12.249-17.378,17.393-28.334,28.5c 22.501,29.167, 57.501,54.167, 92.834,63c-37-0.167-78.833-20.667-107.5-48.167
	c-6.625,6.686-8.426,8.259-12.734,12.483C 192.583,414, 344.083,452.5, 462,360.833z" data-tags="magic-3" />
<glyph unicode="&#xe091;" d="M 138.676,388.206l-47.407-47.408L 414.067,18l 47.407,47.408L 138.676,388.206z M 179.453,280.897
	l 19.123,19.124L 433.19,65.408l-19.123-19.123L 179.453,280.897z M 200.9,385.391c 21.15-6.46, 37.705-23.015, 44.165-44.165
	c 6.46,21.152, 23.013,37.706, 44.162,44.165c-21.149,6.46-37.702,23.013-44.163,44.163C 238.605,408.405, 222.051,391.849, 200.9,385.391z
	 M 109.098,266c-8.567-28.051-30.523-50.004-58.572-58.572c 28.049-8.568, 50.005-30.521, 58.572-58.572
	c 8.567,28.051, 30.521,50.004, 58.572,58.572C 139.619,215.996, 117.665,237.949, 109.098,266L 109.098,266z M 273.072,320.347
	c 14.961-4.57, 26.67-16.279, 31.239-31.24c 4.569,14.961, 16.276,26.67, 31.239,31.24c-14.963,4.568-26.67,16.277-31.239,31.24
	C 299.742,336.626, 288.033,324.915, 273.072,320.347z M 349.077,430c-5.213-17.067-18.572-30.427-35.643-35.64
	c 17.070-5.215, 30.429-18.574, 35.643-35.643c 5.213,17.070, 18.572,30.43, 35.641,35.642C 367.648,399.571, 354.29,412.931, 349.077,430
	L 349.077,430z" data-tags="magic-2" />
<glyph unicode="&#xe092;" d="M 138.676,388.206l-47.407-47.408L 414.067,18l 47.407,47.407L 138.676,388.206z M 175.679,284.69l-56.107,56.108
	l 19.104,19.104l 56.107-56.109L 175.679,284.69z M 200.9,385.391c 21.15-6.46, 37.705-23.015, 44.165-44.165
	c 6.46,21.152, 23.013,37.706, 44.162,44.165c-21.149,6.46-37.702,23.013-44.163,44.163C 238.605,408.405, 222.051,391.849, 200.9,385.391z
	 M 109.098,266c-8.567-28.052-30.523-50.004-58.572-58.572c 28.049-8.568, 50.005-30.522, 58.572-58.572
	c 8.567,28.050, 30.521,50.003, 58.572,58.572C 139.619,215.995, 117.665,237.948, 109.098,266L 109.098,266z M 273.072,320.347
	c 14.961-4.57, 26.67-16.279, 31.239-31.24c 4.569,14.961, 16.276,26.67, 31.239,31.24c-14.963,4.568-26.67,16.277-31.239,31.24
	C 299.742,336.626, 288.033,324.915, 273.072,320.347z M 349.077,430c-5.213-17.067-18.572-30.427-35.643-35.64
	c 17.070-5.215, 30.429-18.574, 35.643-35.643c 5.213,17.070, 18.572,30.43, 35.641,35.642C 367.648,399.571, 354.29,412.931, 349.077,430
	L 349.077,430z" data-tags="magic-1" />
<glyph unicode="&#xe093;" d="M 220.224,96.394l0,84.045 l 149.859,0 l0,41.746 L 454,138.415l-83.917-83.77l0,41.748 L 220.224,96.393 z M 280.512,210.438
	l 40,0 L 320.512,393.354 L 58,393.354 l0-300 l 110.445,84.912L 168.445,353.354 l 112.066,0 L 280.511,210.438 z" data-tags="logout-3" />
<glyph unicode="&#xe094;" d="M 228.224,181.979l0,84.045 l 149.859,0 L 378.083,307.77 L 462,224l-83.917-83.77l0,41.748 L 228.224,181.978 z M 300.345,151.924
	c-21.779-27.928-55.217-45.403-92.791-45.403c-31.38,0-60.881,12.221-83.070,34.41c-22.19,22.189-34.41,51.69-34.41,83.069
	c0,31.38, 12.22,60.882, 34.409,83.070c 22.189,22.189, 51.691,34.409, 83.071,34.409c 37.646,0, 71.053-17.53, 92.791-45.401l 47.34,0 
	c-26.162,50.762-79.091,85.475-140.131,85.475C 120.54,381.553, 50,311.015, 50,224c0-87.011, 70.54-157.553, 157.554-157.553
	c 61.040,0, 113.969,34.715, 140.131,85.477L 300.345,151.924 z" data-tags="logout-2" />
<glyph unicode="&#xe095;" d="M 378.083,181.979l0-41.748 L 462,224l-83.917,83.77l0-41.746 L 228.224,266.024 l0-84.045 L 378.083,181.979 z M 333.777,151.979L 333.777,74 L 50,74 
	L 50,374 l 283.777,0 l0-77.977 l-40,0 L 293.777,334 L 90,334 l0-220 l 203.777,0 l0,37.979 L 333.777,151.979 z" data-tags="logout-1" />
<glyph unicode="&#xe096;" d="M 50,115.748l0,84.045 l 149.859,0 l0,41.746 l 83.917-83.77L 199.859,74l0,41.748 L 50,115.748 z M 199.488,374l0-89.701 l 40-39.93
	L 239.488,334 l 112.066,0 l0-175.088 L 462,74L 462,374 L 199.488,374 z" data-tags="login-3" />
<glyph unicode="&#xe097;" d="M 50,181.979l0,84.045 l 142.859,0 L 192.859,307.77 L 276.776,224l-83.917-83.77l0,41.748 L 50,181.978 z M 304.447,381.553
	c-36.184,0-69.513-12.206-96.11-32.714l 28.61-28.561c 19.632,13.826, 42.993,21.275, 67.5,21.275c 31.399,0, 60.919-12.228, 83.122-34.43
	C 409.772,284.919, 422,255.399, 422,224s-12.228-60.92-34.431-83.122c-22.203-22.203-51.723-34.431-83.122-34.431
	c-24.507,0-47.868,7.449-67.5,21.275l-28.611-28.561c 26.599-20.509, 59.928-32.715, 96.111-32.715
	C 391.461,66.447, 462,136.986, 462,224C 462,311.014, 391.461,381.553, 304.447,381.553z" data-tags="login-2" />
<glyph unicode="&#xe098;" d="M 202.859,181.979l0-41.748 L 286.777,224l-83.918,83.77l0-41.746 L 50,266.024 l0-84.045 L 202.859,181.979 z M 462,374l0-300 L 178.975,74 
	l 40.071,40L 422,114 L 422,334 L 219.046,334 l-40.071,40L 462,374 z" data-tags="login-1" />
<glyph unicode="&#xe099;" d="M 221.333,256.667l0,62.666 c0,33.452-27.215,60.667-60.666,60.667s-60.666-27.215-60.666-60.667l0-62.666 l-50,0 
	l0,62.666 C 50.001,380.355, 99.646,430, 160.667,430s 110.666-49.645, 110.666-110.667l0-62.666 L 221.333,256.667 z M 413.999,178.667L 413.999,66 l-200,0 L 213.999,178.667 
	L 413.999,178.667  M 461.999,226.667l-296,0 L 165.999,18 l 296,0 L 461.999,226.667 L 461.999,226.667z" data-tags="lock-6" />
<glyph unicode="&#xe09a;" d="M 221.333,256.667l0,62.666 c0,33.452-27.215,60.667-60.666,60.667s-60.666-27.215-60.666-60.667l0-62.666 l-50,0 
	l0,62.666 C 50.001,380.355, 99.646,430, 160.667,430s 110.666-49.645, 110.666-110.667l0-62.666 L 221.333,256.667 z M 165.999,226.667L 165.999,18 l 296,0 L 461.999,226.667 
	L 165.999,226.667 z" data-tags="lock-5" />
<glyph unicode="&#xe09b;" d="M 195.334,256.667l-50,0 l0,62.666 C 145.334,380.355, 194.979,430, 256,430c 61.022,0, 110.667-49.645, 110.667-110.667
	l0-62.666 l-50,0 l0,62.666 C 316.667,352.785, 289.452,380, 256,380c-33.451,0-60.666-27.215-60.666-60.667L 195.334,256.667 z M 404,226.667L 404,18 L 108,18 
	L 108,226.667 L 404,226.667 z M 313.818,85.476l-36.307,36.303l 36.303,36.306l-19.521,19.506l-36.296-36.301l-36.302,36.296l-19.515-19.502
	l 36.308-36.306l-36.304-36.31l 19.503-19.516l 36.312,36.312l 36.311-36.308L 313.818,85.476z" data-tags="lock-4" />
<glyph unicode="&#xe09c;" d="M 195.334,256.667l-50,0 l0,62.666 C 145.334,380.355, 194.979,430, 256,430c 61.022,0, 110.667-49.645, 110.667-110.667
	l0-62.666 l-50,0 l0,62.666 C 316.667,352.785, 289.452,380, 256,380c-33.451,0-60.666-27.215-60.666-60.667L 195.334,256.667 z M 404,226.667L 404,18 L 108,18 
	L 108,226.667 L 404,226.667 z M 325.995,154.618l-20.743,20.729l-64.553-64.552l-27.959,27.969l-20.734-20.738l 48.695-48.708L 325.995,154.618z" data-tags="lock-3" />
<glyph unicode="&#xe09d;" d="M 145.334,256.667l0,62.666 C 145.334,380.354, 194.979,430, 256,430c 61.022,0, 110.667-49.646, 110.667-110.667
	l0-62.666 l-50,0 l0,62.666 C 316.667,352.784, 289.452,380, 256,380c-33.451,0-60.666-27.216-60.666-60.667l0-62.666 L 145.334,256.667 z M 356,178.667L 356,66 
	L 156,66 L 156,178.667 L 356,178.667  M 404,226.667L 108,226.667 L 108,18 l 296,0 L 404,226.667 L 404,226.667z" data-tags="lock-2" />
<glyph unicode="&#xe09e;" d="M 145.333,256.667l0,62.666 C 145.333,380.355, 194.979,430, 256,430c 61.022,0, 110.667-49.645, 110.667-110.667l0-62.666 
	l-50,0 l0,62.666 C 316.667,352.785, 289.452,380, 256,380c-33.452,0-60.667-27.215-60.667-60.667l0-62.666 L 145.333,256.667 z M 108,226.667L 108,18 l 296,0 
	L 404,226.667 L 108,226.667 z" data-tags="lock-1" />
<glyph unicode="&#xe09f;" d="M 342.416,310.416c 10.014-10.014, 10.014-26.251-0.001-36.266L 205.846,137.58

	c-10.014-10.015-26.251-10.014-36.265,0.001l0,0c-10.016,10.014-10.016,26.251-0.001,36.265l 136.569,136.57

	C 316.163,320.43, 332.4,320.43, 342.416,310.416L 342.416,310.416z M 185.541,80.623c-20.103-20.103-52.813-20.103-72.917,0

	c-20.103,20.104-20.103,52.814,0,72.917l 96.791,96.681c-32.479,7.885-68.169-0.853-93.53-26.214L 79.020,187.143

	c-38.693-38.693-38.693-101.429,0-140.123c 38.694-38.693, 101.43-38.693, 140.123,0l 36.864,36.864

	c 25.357,25.358, 34.095,61.042, 26.216,93.517L 185.541,80.623z M 292.856,400.98l-36.862-36.863

	c-25.362-25.362-34.154-60.996-26.27-93.476l 96.735,96.736c 20.104,20.103, 52.812,20.103, 72.916,0

	c 20.104-20.103, 20.104-52.812, 0.001-72.916l-96.73-96.73c 32.476-7.88, 68.111,0.904, 93.47,26.264l 36.864,36.864

	c 38.692,38.693, 38.692,101.428-0.001,140.122C 394.285,439.674, 331.551,439.674, 292.856,400.98z" data-tags="link-1" />
<glyph unicode="&#xe0a0;" d="M 241.897,207.266l0-57.26 l-20.963-5.074l 7.188-29.682l-30.947-7.49l 6.771-27.972l-68.732-16.642
	l-11.539,47.668l 83.734,135.976C 215.442,230.912, 227.354,217.316, 241.897,207.266z M 261.362,196.138l-0.002-143.459L 296.040,18
	l 50.004,50.005l-20.35,20.35l 22.516,22.513l-21.596,21.593l 21.596,21.597L 348.21,198.66 C 320.354,185.354, 288.731,184.945, 261.362,196.138z
	 M 388.325,294.416c0-47.716-38.682-86.396-86.396-86.396c-47.715,0.001-86.395,38.68-86.396,86.396
	c0,43.698, 32.455,79.801, 74.57,85.57c-8.814,16.991-26.561,28.636-46.99,28.636c-29.176,0-52.91-23.736-52.91-52.912
	c0-11.773, 3.869-22.657, 10.398-31.457c-2.471-8.373-3.938-17.172-4.24-26.262c-16.795,13.62-27.535,34.412-27.535,57.719
	c0,41.029, 33.26,74.29, 74.287,74.29c 32.504,0, 60.113-20.882, 70.193-49.957C 355.64,374.472, 388.325,338.272, 388.325,294.416z
	 M 323.312,334.903c0,5.831-2.336,11.111-6.115,14.976c-0.576-8.11-2.314-15.385-4.701-20.007c-7.059-1.48-16.061,2.845-19.316,9.28
	c 1.758,4.575, 2.82,9.41, 2.842,16.346c-8.979-2.554-15.562-10.798-15.564-20.595c 0.002-11.836, 9.596-21.431, 21.43-21.431
	C 313.72,313.475, 323.312,323.067, 323.312,334.903z" data-tags="key-4" />
<glyph unicode="&#xe0a1;" d="M 266.298,169.229L 125.235,28.168L 80.808,18l-14.542,14.461l 133.886,133.887l-14.65,14.65L 52.282,47.777
	l 7.693,49.647L 199.040,236.489L 266.298,169.229z M 355.442,178.084l 95.415,113.269c 12.603,14.957, 11.657,37.074-2.175,50.904
	l-76.708,76.71c-13.839,13.837-35.971,14.775-50.927,2.157l-113.195-95.486c-16.859-14.221-17.938-39.844-2.348-55.43l 94.491-94.49
	C 315.596,160.114, 341.233,161.213, 355.442,178.084z M 318.524,375.106l 17.178,14.214c 6.738,5.573, 16.609,5.109, 22.793-1.073
	l 59.604-59.604c 6.213-6.211, 6.65-16.14, 1.008-22.873l-14.242-17.002L 318.524,375.106z" data-tags="key-3" />
<glyph unicode="&#xe0a2;" d="M 241.21,109.199l-43.874,0 l 0.002-43.873l-45.745,0.002l0-41.345 L 49.994,23.983 l0,70.458 l 145.737,145.737
	c 4-9.534, 8.962-18.622, 14.771-27.135L 79.994,82.015l0-28.031 l 41.599,0 l0,41.346 l 45.744-0.002l-0.002,43.872l 61.448,0 l 28.655,29.168
	c 9.066-5.548, 18.794-10.217, 29.086-13.854L 241.21,109.199z M 385.887,305.91c-11.599-11.597-30.402-11.599-41.999-0.001
	c-11.598,11.598-11.598,30.402,0,42.001c 11.597,11.598, 30.401,11.597, 42.001,0C 397.484,336.312, 397.485,317.508, 385.887,305.91z
	 M 337.882,424.017c-68.552,0-124.124-55.572-124.124-124.124S 269.33,175.77, 337.882,175.77s 124.124,55.572, 124.124,124.124
	S 406.434,424.017, 337.882,424.017z M 337.882,205.77c-51.9,0-94.124,42.224-94.124,94.124s 42.224,94.124, 94.124,94.124
	s 94.124-42.224, 94.124-94.124S 389.782,205.77, 337.882,205.77z" data-tags="key-2" />
<glyph unicode="&#xe0a3;" d="M 286.529,154.514l-45.314-45.314l-43.873,0 l 0.002-43.872
	l-45.746,0.001l0-41.345 l-100.004,0.001l 150.078,150.076c-4.578,4.686-10.061,11.391-13.691,17.423L 50,53.502l0,40.939 
	l 145.736,145.736C 212.174,201.004, 244.713,169.295, 286.529,154.514z M 425.646,387.661c 48.473-48.473, 48.471-127.064-0.002-175.535
	c-48.477-48.476-127.061-48.476-175.537-0.001c-48.473,48.472-48.475,127.062,0,175.537
	C 298.58,436.135, 377.172,436.135, 425.646,387.661z M 400.73,362.835c-12.023,12.021-31.516,12.021-43.537,0
	c-12.021-12.022-12.021-31.517,0-43.538s 31.514-12.021, 43.537,0.001C 412.754,331.32, 412.75,350.812, 400.73,362.835z" data-tags="key-1" />
<glyph unicode="&#xe0a4;" d="M 285.76,154.406l-49.52,0 L 236.24,259.625 l 49.52,0 L 285.76,154.406 z M 261,282.864c-14.758,0-26.721,11.966-26.721,26.724

	c0,14.757, 11.963,26.723, 26.721,26.723c 14.759,0, 26.721-11.966, 26.721-26.723C 287.721,294.83, 275.759,282.864, 261,282.864z

	 M 50.918,33.353C 67.583,66.5, 86.083,112, 85.135,143.724C 62.684,170.796, 50,205.684, 50,241.217

	c0,100.183, 97.19,173.431, 206,173.431c 108.132,0, 206-72.698, 206-173.431c0-104.894-115.562-202.853-274.119-163.914

	C 159.083,59.5, 95.583,41.5, 50.918,33.353z M 256,374.531c-91.469,0-165.884-59.805-165.884-133.314

	c0-38.68, 16.694-63.037, 40.256-87.055c-4.789-35.662-16.289-66.662-16.289-66.662s 34,9, 72.629,31.56

	c 147.805-39.194, 235.171,46.094, 235.171,122.157C 421.883,314.727, 347.468,374.531, 256,374.531z" data-tags="info-4" />
<glyph unicode="&#xe0a5;" d="M 256,414.647c-108.81,0-206-73.248-206-173.431c0-35.533, 12.684-70.421, 35.135-97.493

	C 86.083,112, 67.583,66.5, 50.918,33.353c 44.665,8.147, 108.165,26.147, 136.963,43.95C 346.438,38.364, 462,136.323, 462,241.217

	C 462,341.949, 364.132,414.647, 256,414.647z M 286.467,147.267l-52.126,0 L 234.341,265.023 l 52.126,0 L 286.467,147.267 z M 260.404,289.485

	c-15.535,0-28.128,12.596-28.128,28.13s 12.593,28.129, 28.128,28.129s 28.127-12.595, 28.127-28.129S 275.939,289.485, 260.404,289.485z" data-tags="info-3" />
<glyph unicode="&#xe0a6;" d="M 256,389.998c 91.74,0, 166-74.241, 166-165.998c0-91.739-74.245-165.998-166-165.998

	c-91.738,0-166,74.242-166,165.998C 90,315.741, 164.243,389.998, 256,389.998 M 256,429.998C 142.229,429.998, 50,337.772, 50,224

	c0-113.769, 92.229-205.998, 206-205.998c 113.77,0, 206,92.229, 206,205.998C 462,337.772, 369.77,429.998, 256,429.998L 256,429.998z

	 M 252.566,108.192c-28.21-9.913-51.466,1.455-46.801,28.547c 4.667,27.098, 31.436,85.109, 35.255,96.079

	c 3.816,10.97-3.502,13.977-11.346,9.513c-4.524-2.61-11.248-7.841-17.020-12.925c-1.601,3.223-3.852,6.906-5.542,10.433

	c 9.419,9.439, 25.164,22.094, 43.803,26.681c 22.27,5.497, 59.492-3.29, 43.494-45.858c-11.424-30.34-19.503-51.276-24.594-66.868

	c-5.088-15.598, 0.955-18.868, 9.863-12.791c 6.959,4.751, 14.372,11.214, 19.806,16.226c 2.515-4.086, 3.319-5.389, 5.806-10.084

	C 295.857,137.476, 271.182,114.849, 252.566,108.192z M 311.016,295.873c-12.795-10.891-31.76-10.655-42.37,0.532

	c-10.607,11.181-8.837,29.076, 3.955,39.969c 12.794,10.89, 31.763,10.654, 42.37-0.525

	C 325.577,324.663, 323.809,306.769, 311.016,295.873z" data-tags="info-2" />
<glyph unicode="&#xe0a7;" d="M 256,429.998C 142.229,429.998, 50,337.772, 50,224c0-113.769, 92.229-205.998, 206-205.998

	c 113.77,0, 206,92.229, 206,205.998C 462,337.772, 369.77,429.998, 256,429.998z M 251.989,103.070

	c-29.694-10.436-54.175,1.531-49.264,30.049c 4.913,28.523, 33.090,89.589, 37.11,101.135c 4.017,11.547-3.687,14.712-11.943,10.015

	c-4.763-2.749-11.84-8.254-17.916-13.606c-1.685,3.393-4.055,7.27-5.833,10.983c 9.915,9.936, 26.488,23.256, 46.108,28.083

	c 23.441,5.787, 62.624-3.463, 45.783-48.271c-12.024-31.937-20.529-53.976-25.888-70.388c-5.356-16.418, 1.006-19.861, 10.382-13.464

	c 7.325,5.001, 15.129,11.804, 20.849,17.079c 2.646-4.301, 3.494-5.672, 6.11-10.614C 297.559,133.895, 271.584,110.076, 251.989,103.070z

	 M 313.516,300.628c-13.469-11.463-33.433-11.216-44.601,0.561c-11.166,11.77-9.302,30.606, 4.163,42.072

	c 13.468,11.463, 33.435,11.215, 44.6-0.553C 328.843,330.934, 326.98,312.098, 313.516,300.628z" data-tags="info-1" />
<glyph unicode="&#xe0a8;" d="M 346.793,225.202l-37.090-40.623L 201.796,184.579 l-36.088,40.623L 50.060,225.202 L 50,225.202 l 17-199.404l 374,0 l 21,199.404l-0.060,0 

	L 346.793,225.202 z M 424.685,346.702L 87.521,346.702 l-4,30l 345.164,0 L 424.685,346.702z M 402.435,397.202L 112.521,397.202 l-4,25l 297.914,0 L 402.435,397.202z

	 M 68.048,251.97l-6.465,72.965l 390,0 l-6.846-72.965l-43.495,0 l 3.341,32.965l-297,0 l 3.341-32.965L 68.048,251.97 z" data-tags="inbox-5" />
<glyph unicode="&#xe0a9;" d="M 88.473,427.5L 50,215.833L 67,20.5l 374,0 l 21,195.333L 426.527,427.5L 88.473,427.5 z M 413.902,219.872l-67.16,0 

	l-37.090-40.579L 201.845,179.293 l-36.088,40.579L 98.098,219.872 L 127.57,387.403L 387.43,387.403 L 413.902,219.872z" data-tags="inbox-4" />
</font>
</defs>
</svg>
